<svg
	width="231"
	height="262"
	viewBox="0 0 231 262"
	fill="none"
	xmlns="http://www.w3.org/2000/svg"
	class="mx-auto w-24"
>
	<path
		fill-rule="evenodd"
		clip-rule="evenodd"
		d="M116 36C120 36 124 35 127 32L147 43C147 44 146 45 146 47C146 56 155 65 164 65C174 65 182 56 182 47C182 37 174 29 164 29C160 29 156 30 153 33L133 22C134 21 134 20 134 18C134 9 126 0 116 0C106 0 98 9 98 18C98 20 98 21 98 22L79 33C75 30 71 29 67 29C57 29 49 37 49 47C49 56 57 65 67 65C77 65 85 56 85 47C85 45 85 44 85 43L104 32C107 35 111 36 116 36ZM85 219L104 230C107 227 111 226 116 226C120 226 124 227 127 230L147 219C147 218 146 217 146 215C146 206 155 197 164 197C174 197 182 206 182 215C182 225 174 233 164 233C160 233 156 232 153 229L133 240C134 241 134 242 134 244C134 253 126 262 116 262C106 262 98 253 98 244C98 242 98 241 98 240L79 229C75 232 71 233 67 233C57 233 49 225 49 215C49 206 57 197 67 197C77 197 85 206 85 215C85 217 85 218 85 219ZM30 174L49 163C49 161 49 160 49 159C49 149 57 141 67 141C77 141 85 149 85 159C85 160 85 161 85 163L104 174C107 171 111 169 116 169C120 169 124 171 128 174L147 163C146 161 146 160 146 159C146 149 154 141 164 141C175 141 183 149 183 159C183 169 175 177 164 177C160 177 156 176 153 173L134 184C134 185 134 186 134 187C134 197 126 206 116 206C106 206 97 197 97 187C97 186 98 185 98 184L79 173C76 176 72 177 67 177C62 177 58 176 55 173L36 184C36 185 36 186 36 187C36 197 28 205 18 205C8 205 0 197 0 187C0 177 8 169 18 169C23 169 27 171 30 174ZM202 88L182 99C183 101 183 102 183 103C183 113 175 121 164 121C154 121 146 113 146 103C146 102 146 101 147 99L128 88C124 91 120 93 116 93C111 93 107 91 104 88L85 99C85 101 85 102 85 103C85 113 77 121 67 121C57 121 49 113 49 103C49 93 57 85 67 85C72 85 76 86 79 89L98 78C98 77 97 76 97 75C97 65 106 57 116 57C126 57 134 65 134 75C134 76 134 77 134 78L153 89C156 86 160 85 164 85C169 85 173 86 176 89L196 78C195 77 195 76 195 75C195 65 203 57 213 57C223 57 231 65 231 75C231 85 223 93 213 93C209 93 205 91 202 88ZM213 144C220 144 226 138 226 131C226 124 220 118 213 118C206 118 200 124 200 131C200 138 206 144 213 144ZM213 200C220 200 226 195 226 187C226 180 220 174 213 174C206 174 200 180 200 187C200 195 206 200 213 200ZM18 88C25 88 31 82 31 75C31 67 25 62 18 62C11 62 5 67 5 75C5 82 11 88 18 88ZM18 144C25 144 31 138 31 131C31 124 25 118 18 118C11 118 5 124 5 131C5 138 11 144 18 144ZM116 152C127 152 137 143 137 131C137 119 127 110 116 110C104 110 95 119 95 131C95 143 104 152 116 152Z"
		fill="url(#paint0_linear_2280_600)"
	/>
	<defs>
		<linearGradient
			id="paint0_linear_2280_600"
			x1="65.895"
			y1="205.7"
			x2="165.501"
			y2="56.298"
			gradientUnits="userSpaceOnUse"
		>
			<stop stop-color="#3676E3" />
			<stop offset="1" stop-color="#1ED2E6" />
		</linearGradient>
	</defs>
</svg>