<?xml version="1.0" encoding="utf-8"?>
<svg viewBox="0 0 500 500" style="shape-rendering:geometricPrecision; text-rendering:geometricPrecision; image-rendering:optimizeQuality; fill-rule:evenodd; clip-rule:evenodd" xmlns="http://www.w3.org/2000/svg">
  <defs>
    <linearGradient id="id0" gradientUnits="userSpaceOnUse" x1="214.895" y1="574.7" x2="314.501" y2="425.298">
      <stop offset="0" style="stop-opacity:1; stop-color:#3676E3"/>
      <stop offset="1" style="stop-opacity:1; stop-color:#1ED2E6"/>
    </linearGradient>
    <style type="text/css">
   
    .fil1 {fill:white}
    .fil2 {fill:url(#id0)}
   
  </style>
  </defs>
  <g id="Layer_x0020_3" transform="matrix(1.8855550289154053, 0, 0, 1.8855550289154053, -247.9775390625, -693.7159423828126)" style="">
    <path class="fil2" d="M265 405c4,0 8,-1 11,-4l20 11c0,1 -1,2 -1,4 0,9 9,18 18,18 10,0 18,-9 18,-18 0,-10 -8,-18 -18,-18 -4,0 -8,1 -11,4l-20 -11c1,-1 1,-2 1,-4 0,-9 -8,-18 -18,-18 -10,0 -18,9 -18,18 0,2 0,3 0,4l-19 11c-4,-3 -8,-4 -12,-4 -10,0 -18,8 -18,18 0,9 8,18 18,18 10,0 18,-9 18,-18 0,-2 0,-3 0,-4l19 -11c3,3 7,4 12,4zm-31 183l19 11c3,-3 7,-4 12,-4 4,0 8,1 11,4l20 -11c0,-1 -1,-2 -1,-4 0,-9 9,-18 18,-18 10,0 18,9 18,18 0,10 -8,18 -18,18 -4,0 -8,-1 -11,-4l-20 11c1,1 1,2 1,4 0,9 -8,18 -18,18 -10,0 -18,-9 -18,-18 0,-2 0,-3 0,-4l-19 -11c-4,3 -8,4 -12,4 -10,0 -18,-8 -18,-18 0,-9 8,-18 18,-18 10,0 18,9 18,18 0,2 0,3 0,4zm-55 -45l19 -11c0,-2 0,-3 0,-4 0,-10 8,-18 18,-18 10,0 18,8 18,18 0,1 0,2 0,4l19 11c3,-3 7,-5 12,-5 4,0 8,2 12,5l19 -11c-1,-2 -1,-3 -1,-4 0,-10 8,-18 18,-18 11,0 19,8 19,18 0,10 -8,18 -19,18 -4,0 -8,-1 -11,-4l-19 11c0,1 0,2 0,3 0,10 -8,19 -18,19 -10,0 -19,-9 -19,-19 0,-1 1,-2 1,-3l-19 -11c-3,3 -7,4 -12,4 -5,0 -9,-1 -12,-4l-19 11c0,1 0,2 0,3 0,10 -8,18 -18,18 -10,0 -18,-8 -18,-18 0,-10 8,-18 18,-18 5,0 9,2 12,5zm172 -86l-20 11c1,2 1,3 1,4 0,10 -8,18 -19,18 -10,0 -18,-8 -18,-18 0,-1 0,-2 1,-4l-19 -11c-4,3 -8,5 -12,5 -5,0 -9,-2 -12,-5l-19 11c0,2 0,3 0,4 0,10 -8,18 -18,18 -10,0 -18,-8 -18,-18 0,-10 8,-18 18,-18 5,0 9,1 12,4l19 -11c0,-1 -1,-2 -1,-3 0,-10 9,-18 19,-18 10,0 18,8 18,18 0,1 0,2 0,3l19 11c3,-3 7,-4 11,-4 5,0 9,1 12,4l20 -11c-1,-1 -1,-2 -1,-3 0,-10 8,-18 18,-18 10,0 18,8 18,18 0,10 -8,18 -18,18 -4,0 -8,-2 -11,-5zm11 56c7,0 13,-6 13,-13 0,-7 -6,-13 -13,-13 -7,0 -13,6 -13,13 0,7 6,13 13,13zm0 56c7,0 13,-5 13,-13 0,-7 -6,-13 -13,-13 -7,0 -13,6 -13,13 0,8 6,13 13,13zm-195 -112c7,0 13,-6 13,-13 0,-8 -6,-13 -13,-13 -7,0 -13,5 -13,13 0,7 6,13 13,13zm0 56c7,0 13,-6 13,-13 0,-7 -6,-13 -13,-13 -7,0 -13,6 -13,13 0,7 6,13 13,13zm98 8c11,0 21,-9 21,-21 0,-12 -10,-21 -21,-21 -12,0 -21,9 -21,21 0,12 9,21 21,21z"/>
  </g>
</svg>
