<svg width="721" height="325" viewBox="0 0 721 325" fill="none" xmlns="http://www.w3.org/2000/svg">
<path d="M25.6495 21.8182V13.6364H26.1737V21.8182H25.6495ZM27.2891 16.174C27.255 15.8714 27.1143 15.6371 26.8672 15.4709C26.62 15.3026 26.3089 15.2184 25.9339 15.2184C25.6655 15.2184 25.4332 15.261 25.2372 15.3462C25.0412 15.4293 24.8888 15.5444 24.7802 15.6914C24.6737 15.8363 24.6204 16.0014 24.6204 16.1868C24.6204 16.3423 24.6566 16.4766 24.729 16.5895C24.8036 16.7024 24.9006 16.7972 25.0199 16.8739C25.1413 16.9485 25.2713 17.0114 25.4098 17.0625C25.5483 17.1115 25.6815 17.152 25.8093 17.1839L26.4485 17.3501C26.6573 17.4013 26.8714 17.4705 27.0909 17.5579C27.3104 17.6452 27.5138 17.7603 27.7013 17.9031C27.8888 18.0458 28.0401 18.2227 28.1552 18.4336C28.2724 18.6445 28.331 18.897 28.331 19.1911C28.331 19.5618 28.2351 19.891 28.0433 20.1786C27.8537 20.4663 27.5778 20.6932 27.2156 20.8594C26.8555 21.0256 26.4197 21.1087 25.9084 21.1087C25.4183 21.1087 24.9943 21.0309 24.6364 20.8754C24.2784 20.7198 23.9982 20.4993 23.7958 20.2138C23.5934 19.9261 23.4815 19.5852 23.4602 19.1911H24.451C24.4702 19.4276 24.5469 19.6246 24.6811 19.7823C24.8175 19.9379 24.9911 20.054 25.2021 20.1307C25.4151 20.2053 25.6484 20.2425 25.902 20.2425C26.1811 20.2425 26.4293 20.1989 26.6467 20.1115C26.8661 20.022 27.0387 19.8984 27.1644 19.7408C27.2901 19.581 27.353 19.3945 27.353 19.1815C27.353 18.9876 27.2976 18.8288 27.1868 18.7053C27.0781 18.5817 26.93 18.4794 26.7425 18.3984C26.5572 18.3175 26.3473 18.2461 26.1129 18.1843L25.3395 17.9734C24.8153 17.8306 24.3999 17.6207 24.093 17.3438C23.7884 17.0668 23.636 16.7003 23.636 16.2443C23.636 15.8672 23.7383 15.538 23.9428 15.2567C24.1474 14.9755 24.4244 14.7571 24.7738 14.6016C25.1232 14.4439 25.5174 14.3651 25.9563 14.3651C26.3995 14.3651 26.7905 14.4428 27.1293 14.5984C27.4702 14.7539 27.7386 14.968 27.9347 15.2408C28.1307 15.5114 28.233 15.8224 28.2415 16.174H27.2891ZM31.5821 21.0895C31.1816 21.0895 30.8215 21.0128 30.5019 20.8594C30.1844 20.7038 29.9308 20.4908 29.7412 20.2202C29.5516 19.9496 29.4504 19.6406 29.4376 19.2933H30.3964C30.4198 19.5746 30.5445 19.8058 30.7703 19.9869C30.9962 20.168 31.2668 20.2585 31.5821 20.2585C31.8335 20.2585 32.0562 20.201 32.2501 20.0859C32.4461 19.9688 32.5995 19.8079 32.7103 19.6033C32.8232 19.3988 32.8797 19.1655 32.8797 18.9034C32.8797 18.6371 32.8222 18.3995 32.7071 18.1907C32.5921 17.9819 32.4333 17.8178 32.2309 17.6985C32.0306 17.5792 31.8005 17.5185 31.5406 17.5163C31.3424 17.5163 31.1432 17.5504 30.9429 17.6186C30.7426 17.6868 30.5807 17.7763 30.4571 17.8871L29.5526 17.7528L29.9202 14.4545H33.5189V15.3015H30.7416L30.5338 17.1328H30.5722C30.7 17.0092 30.8694 16.9059 31.0803 16.8228C31.2934 16.7397 31.5214 16.6982 31.7643 16.6982C32.1627 16.6982 32.5175 16.793 32.8286 16.9826C33.1418 17.1722 33.3879 17.4311 33.5669 17.7592C33.748 18.0852 33.8374 18.4602 33.8353 18.8842C33.8374 19.3082 33.7416 19.6864 33.5477 20.0188C33.3559 20.3512 33.0896 20.6133 32.7487 20.805C32.4099 20.9947 32.021 21.0895 31.5821 21.0895ZM37.2814 21.1087C36.7765 21.1065 36.345 20.9734 35.987 20.7092C35.6291 20.445 35.3553 20.0604 35.1657 19.5554C34.976 19.0504 34.8812 18.4421 34.8812 17.7305C34.8812 17.021 34.976 16.4148 35.1657 15.9119C35.3574 15.4091 35.6323 15.0256 35.9902 14.7614C36.3503 14.4972 36.7807 14.3651 37.2814 14.3651C37.7821 14.3651 38.2115 14.4982 38.5694 14.7646C38.9274 15.0288 39.2012 15.4123 39.3908 15.9151C39.5826 16.4158 39.6784 17.021 39.6784 17.7305C39.6784 18.4442 39.5836 19.0536 39.394 19.5586C39.2044 20.0614 38.9306 20.446 38.5726 20.7124C38.2147 20.9766 37.7843 21.1087 37.2814 21.1087ZM37.2814 20.2553C37.7246 20.2553 38.0708 20.0391 38.3201 19.6065C38.5716 19.174 38.6973 18.5487 38.6973 17.7305C38.6973 17.1871 38.6397 16.728 38.5247 16.353C38.4118 15.9759 38.2488 15.6903 38.0357 15.4964C37.8248 15.3004 37.5733 15.2024 37.2814 15.2024C36.8404 15.2024 36.4941 15.4197 36.2427 15.8544C35.9913 16.2891 35.8645 16.9144 35.8624 17.7305C35.8624 18.2759 35.9189 18.7372 36.0318 19.1143C36.1468 19.4893 36.3098 19.7738 36.5208 19.9677C36.7317 20.1594 36.9853 20.2553 37.2814 20.2553ZM40.9017 14.4545H42.1002L44.184 19.5426H44.2607L46.3445 14.4545H47.5431V21H46.6034V16.2635H46.5427L44.6123 20.9904H43.8325L41.9021 16.2603H41.8414V21H40.9017V14.4545Z" fill="#B7CDFD" style="mix-blend-mode:screen"/>
<path d="M25.6495 77.2186V69.0368H26.1737V77.2186H25.6495ZM27.2891 71.5744C27.255 71.2718 27.1143 71.0375 26.8672 70.8713C26.62 70.7029 26.3089 70.6188 25.9339 70.6188C25.6655 70.6188 25.4332 70.6614 25.2372 70.7466C25.0412 70.8297 24.8888 70.9448 24.7802 71.0918C24.6737 71.2367 24.6204 71.4018 24.6204 71.5872C24.6204 71.7427 24.6566 71.877 24.729 71.9899C24.8036 72.1028 24.9006 72.1976 25.0199 72.2743C25.1413 72.3489 25.2713 72.4118 25.4098 72.4629C25.5483 72.5119 25.6815 72.5524 25.8093 72.5843L26.4485 72.7505C26.6573 72.8017 26.8714 72.8709 27.0909 72.9583C27.3104 73.0456 27.5138 73.1607 27.7013 73.3034C27.8888 73.4462 28.0401 73.623 28.1552 73.834C28.2724 74.0449 28.331 74.2974 28.331 74.5914C28.331 74.9622 28.2351 75.2914 28.0433 75.579C27.8537 75.8667 27.5778 76.0936 27.2156 76.2598C26.8555 76.426 26.4197 76.5091 25.9084 76.5091C25.4183 76.5091 24.9943 76.4313 24.6364 76.2757C24.2784 76.1202 23.9982 75.8997 23.7958 75.6142C23.5934 75.3265 23.4815 74.9856 23.4602 74.5914H24.451C24.4702 74.8279 24.5469 75.025 24.6811 75.1827C24.8175 75.3382 24.9911 75.4544 25.2021 75.5311C25.4151 75.6056 25.6484 75.6429 25.902 75.6429C26.1811 75.6429 26.4293 75.5993 26.6467 75.5119C26.8661 75.4224 27.0387 75.2988 27.1644 75.1412C27.2901 74.9814 27.353 74.7949 27.353 74.5819C27.353 74.388 27.2976 74.2292 27.1868 74.1056C27.0781 73.9821 26.93 73.8798 26.7425 73.7988C26.5572 73.7179 26.3473 73.6465 26.1129 73.5847L25.3395 73.3738C24.8153 73.231 24.3999 73.0211 24.093 72.7441C23.7884 72.4672 23.636 72.1007 23.636 71.6447C23.636 71.2676 23.7383 70.9384 23.9428 70.6571C24.1474 70.3759 24.4244 70.1575 24.7738 70.002C25.1232 69.8443 25.5174 69.7654 25.9563 69.7654C26.3995 69.7654 26.7905 69.8432 27.1293 69.9988C27.4702 70.1543 27.7386 70.3684 27.9347 70.6412C28.1307 70.9118 28.233 71.2228 28.2415 71.5744H27.2891ZM29.2842 75.122V74.323L32.1127 69.8549H32.7423V71.0311H32.3428L30.3197 74.2335V74.2846H34.1965V75.122H29.2842ZM32.3875 76.4004V74.8791L32.3939 74.5147V69.8549H33.3303V76.4004H32.3875ZM37.589 76.5091C37.0841 76.5069 36.6526 76.3738 36.2947 76.1096C35.9367 75.8453 35.6629 75.4608 35.4733 74.9558C35.2836 74.4508 35.1888 73.8425 35.1888 73.1309C35.1888 72.4213 35.2836 71.8152 35.4733 71.3123C35.665 70.8095 35.9399 70.426 36.2979 70.1618C36.6579 69.8975 37.0883 69.7654 37.589 69.7654C38.0898 69.7654 38.5191 69.8986 38.877 70.1649C39.235 70.4292 39.5088 70.8127 39.6984 71.3155C39.8902 71.8162 39.9861 72.4213 39.9861 73.1309C39.9861 73.8446 39.8912 74.454 39.7016 74.959C39.512 75.4618 39.2382 75.8464 38.8802 76.1127C38.5223 76.377 38.0919 76.5091 37.589 76.5091ZM37.589 75.6557C38.0322 75.6557 38.3785 75.4395 38.6278 75.0069C38.8792 74.5744 39.0049 73.949 39.0049 73.1309C39.0049 72.5875 38.9474 72.1284 38.8323 71.7534C38.7194 71.3762 38.5564 71.0907 38.3433 70.8968C38.1324 70.7008 37.8809 70.6028 37.589 70.6028C37.148 70.6028 36.8018 70.8201 36.5503 71.2548C36.2989 71.6895 36.1721 72.3148 36.17 73.1309C36.17 73.6763 36.2265 74.1376 36.3394 74.5147C36.4545 74.8897 36.6175 75.1742 36.8284 75.3681C37.0393 75.5598 37.2929 75.6557 37.589 75.6557ZM41.2093 69.8549H42.4078L44.4917 74.943H44.5684L46.6522 69.8549H47.8507V76.4004H46.911V71.6639H46.8503L44.9199 76.3908H44.1401L42.2097 71.6607H42.149V76.4004H41.2093V69.8549Z" fill="#B7CDFD" style="mix-blend-mode:screen"/>
<path d="M25.6495 132.619V124.437H26.1737V132.619H25.6495ZM27.2891 126.975C27.255 126.672 27.1143 126.438 26.8672 126.272C26.62 126.103 26.3089 126.019 25.9339 126.019C25.6655 126.019 25.4332 126.062 25.2372 126.147C25.0412 126.23 24.8888 126.345 24.7802 126.492C24.6737 126.637 24.6204 126.802 24.6204 126.988C24.6204 127.143 24.6566 127.277 24.729 127.39C24.8036 127.503 24.9006 127.598 25.0199 127.675C25.1413 127.749 25.2713 127.812 25.4098 127.863C25.5483 127.912 25.6815 127.953 25.8093 127.985L26.4485 128.151C26.6573 128.202 26.8714 128.271 27.0909 128.359C27.3104 128.446 27.5138 128.561 27.7013 128.704C27.8888 128.847 28.0401 129.023 28.1552 129.234C28.2724 129.445 28.331 129.698 28.331 129.992C28.331 130.363 28.2351 130.692 28.0433 130.979C27.8537 131.267 27.5778 131.494 27.2156 131.66C26.8555 131.826 26.4197 131.909 25.9084 131.909C25.4183 131.909 24.9943 131.832 24.6364 131.676C24.2784 131.521 23.9982 131.3 23.7958 131.015C23.5934 130.727 23.4815 130.386 23.4602 129.992H24.451C24.4702 130.228 24.5469 130.425 24.6811 130.583C24.8175 130.739 24.9911 130.855 25.2021 130.931C25.4151 131.006 25.6484 131.043 25.902 131.043C26.1811 131.043 26.4293 131 26.6467 130.912C26.8661 130.823 27.0387 130.699 27.1644 130.542C27.2901 130.382 27.353 130.195 27.353 129.982C27.353 129.788 27.2976 129.63 27.1868 129.506C27.0781 129.382 26.93 129.28 26.7425 129.199C26.5572 129.118 26.3473 129.047 26.1129 128.985L25.3395 128.774C24.8153 128.631 24.3999 128.422 24.093 128.145C23.7884 127.868 23.636 127.501 23.636 127.045C23.636 126.668 23.7383 126.339 23.9428 126.058C24.1474 125.776 24.4244 125.558 24.7738 125.402C25.1232 125.245 25.5174 125.166 25.9563 125.166C26.3995 125.166 26.7905 125.244 27.1293 125.399C27.4702 125.555 27.7386 125.769 27.9347 126.042C28.1307 126.312 28.233 126.623 28.2415 126.975H27.2891ZM31.7004 131.89C31.2615 131.89 30.8694 131.815 30.5242 131.663C30.1812 131.512 29.9095 131.302 29.7093 131.034C29.5111 130.763 29.4046 130.45 29.3896 130.094H30.3932C30.406 130.288 30.471 130.456 30.5882 130.599C30.7075 130.74 30.863 130.848 31.0548 130.925C31.2465 131.002 31.4596 131.04 31.694 131.04C31.9518 131.04 32.1798 130.995 32.3779 130.906C32.5782 130.816 32.7348 130.692 32.8477 130.532C32.9607 130.37 33.0171 130.184 33.0171 129.973C33.0171 129.753 32.9607 129.56 32.8477 129.394C32.7369 129.226 32.574 129.094 32.3588 128.998C32.1457 128.902 31.8879 128.854 31.5853 128.854H31.0324V128.049H31.5853C31.8282 128.049 32.0413 128.005 32.2245 127.918C32.4099 127.83 32.5548 127.709 32.6592 127.553C32.7636 127.396 32.8158 127.211 32.8158 127C32.8158 126.798 32.77 126.622 32.6784 126.473C32.5889 126.322 32.461 126.203 32.2948 126.118C32.1308 126.033 31.9369 125.99 31.7132 125.99C31.5001 125.99 31.3009 126.03 31.1155 126.109C30.9323 126.185 30.7831 126.296 30.6681 126.441C30.553 126.584 30.4912 126.755 30.4827 126.956H29.5271C29.5377 126.602 29.6421 126.291 29.8403 126.022C30.0406 125.754 30.3048 125.544 30.6329 125.393C30.961 125.241 31.3254 125.166 31.7259 125.166C32.1457 125.166 32.5079 125.248 32.8126 125.412C33.1194 125.574 33.3559 125.79 33.5221 126.061C33.6904 126.331 33.7735 126.627 33.7714 126.949C33.7735 127.316 33.6713 127.627 33.4646 127.882C33.26 128.138 32.9873 128.31 32.6464 128.397V128.448C33.0811 128.514 33.4177 128.687 33.6563 128.966C33.8971 129.245 34.0164 129.591 34.0143 130.005C34.0164 130.365 33.9163 130.688 33.7139 130.973C33.5136 131.259 33.2398 131.483 32.8925 131.647C32.5452 131.809 32.1478 131.89 31.7004 131.89ZM37.5012 131.909C36.9962 131.907 36.5647 131.774 36.2068 131.51C35.8488 131.246 35.575 130.861 35.3854 130.356C35.1958 129.851 35.1009 129.243 35.1009 128.531C35.1009 127.822 35.1958 127.216 35.3854 126.713C35.5771 126.21 35.852 125.826 36.21 125.562C36.57 125.298 37.0004 125.166 37.5012 125.166C38.0019 125.166 38.4312 125.299 38.7892 125.565C39.1471 125.83 39.4209 126.213 39.6105 126.716C39.8023 127.217 39.8982 127.822 39.8982 128.531C39.8982 129.245 39.8034 129.854 39.6137 130.359C39.4241 130.862 39.1503 131.247 38.7923 131.513C38.4344 131.777 38.004 131.909 37.5012 131.909ZM37.5012 131.056C37.9443 131.056 38.2906 130.84 38.5399 130.407C38.7913 129.975 38.917 129.349 38.917 128.531C38.917 127.988 38.8595 127.529 38.7444 127.154C38.6315 126.777 38.4685 126.491 38.2554 126.297C38.0445 126.101 37.7931 126.003 37.5012 126.003C37.0601 126.003 36.7139 126.221 36.4624 126.655C36.211 127.09 36.0843 127.715 36.0821 128.531C36.0821 129.077 36.1386 129.538 36.2515 129.915C36.3666 130.29 36.5296 130.575 36.7405 130.768C36.9514 130.96 37.205 131.056 37.5012 131.056ZM41.1214 125.255H42.32L44.4038 130.343H44.4805L46.5643 125.255H47.7628V131.801H46.8232V127.064H46.7624L44.832 131.791H44.0522L42.1218 127.061H42.0611V131.801H41.1214V125.255Z" fill="#B7CDFD" style="mix-blend-mode:screen"/>
<path d="M25.6495 188.017V179.836H26.1737V188.017H25.6495ZM27.2891 182.373C27.255 182.071 27.1143 181.836 26.8672 181.67C26.62 181.502 26.3089 181.418 25.9339 181.418C25.6655 181.418 25.4332 181.46 25.2372 181.545C25.0412 181.629 24.8888 181.744 24.7802 181.891C24.6737 182.036 24.6204 182.201 24.6204 182.386C24.6204 182.542 24.6566 182.676 24.729 182.789C24.8036 182.902 24.9006 182.996 25.0199 183.073C25.1413 183.148 25.2713 183.211 25.4098 183.262C25.5483 183.311 25.6815 183.351 25.8093 183.383L26.4485 183.549C26.6573 183.6 26.8714 183.67 27.0909 183.757C27.3104 183.844 27.5138 183.96 27.7013 184.102C27.8888 184.245 28.0401 184.422 28.1552 184.633C28.2724 184.844 28.331 185.096 28.331 185.39C28.331 185.761 28.2351 186.09 28.0433 186.378C27.8537 186.665 27.5778 186.892 27.2156 187.059C26.8555 187.225 26.4197 187.308 25.9084 187.308C25.4183 187.308 24.9943 187.23 24.6364 187.075C24.2784 186.919 23.9982 186.699 23.7958 186.413C23.5934 186.125 23.4815 185.784 23.4602 185.39H24.451C24.4702 185.627 24.5469 185.824 24.6811 185.982C24.8175 186.137 24.9911 186.253 25.2021 186.33C25.4151 186.404 25.6484 186.442 25.902 186.442C26.1811 186.442 26.4293 186.398 26.6467 186.311C26.8661 186.221 27.0387 186.098 27.1644 185.94C27.2901 185.78 27.353 185.594 27.353 185.381C27.353 185.187 27.2976 185.028 27.1868 184.904C27.0781 184.781 26.93 184.679 26.7425 184.598C26.5572 184.517 26.3473 184.445 26.1129 184.384L25.3395 184.173C24.8153 184.03 24.3999 183.82 24.093 183.543C23.7884 183.266 23.636 182.9 23.636 182.444C23.636 182.066 23.7383 181.737 23.9428 181.456C24.1474 181.175 24.4244 180.956 24.7738 180.801C25.1232 180.643 25.5174 180.564 25.9563 180.564C26.3995 180.564 26.7905 180.642 27.1293 180.798C27.4702 180.953 27.7386 181.167 27.9347 181.44C28.1307 181.711 28.233 182.022 28.2415 182.373H27.2891ZM29.4216 187.199V186.483L31.6365 184.189C31.873 183.939 32.0679 183.721 32.2213 183.533C32.3769 183.344 32.493 183.164 32.5697 182.993C32.6464 182.823 32.6847 182.642 32.6847 182.45C32.6847 182.233 32.6336 182.045 32.5313 181.887C32.4291 181.728 32.2895 181.605 32.1127 181.52C31.9358 181.433 31.7366 181.389 31.515 181.389C31.2806 181.389 31.0761 181.437 30.9014 181.533C30.7267 181.629 30.5924 181.764 30.4987 181.939C30.4049 182.113 30.358 182.318 30.358 182.552H29.4152C29.4152 182.154 29.5068 181.805 29.6901 181.507C29.8733 181.209 30.1247 180.978 30.4443 180.814C30.7639 180.647 31.1272 180.564 31.5342 180.564C31.9454 180.564 32.3076 180.646 32.6208 180.81C32.9362 180.972 33.1823 181.194 33.3591 181.475C33.536 181.754 33.6244 182.07 33.6244 182.421C33.6244 182.664 33.5786 182.902 33.4869 183.134C33.3975 183.366 33.2409 183.625 33.0171 183.911C32.7934 184.194 32.4823 184.538 32.0839 184.943L30.7831 186.304V186.352H33.7298V187.199H29.4216ZM37.2199 187.308C36.7149 187.306 36.2835 187.173 35.9255 186.908C35.5676 186.644 35.2938 186.26 35.1041 185.755C34.9145 185.25 34.8197 184.641 34.8197 183.93C34.8197 183.22 34.9145 182.614 35.1041 182.111C35.2959 181.608 35.5708 181.225 35.9287 180.961C36.2888 180.696 36.7192 180.564 37.2199 180.564C37.7206 180.564 38.1499 180.697 38.5079 180.964C38.8659 181.228 39.1396 181.612 39.3293 182.114C39.521 182.615 39.6169 183.22 39.6169 183.93C39.6169 184.643 39.5221 185.253 39.3325 185.758C39.1428 186.261 38.8691 186.645 38.5111 186.912C38.1531 187.176 37.7227 187.308 37.2199 187.308ZM37.2199 186.455C37.6631 186.455 38.0093 186.238 38.2586 185.806C38.51 185.373 38.6357 184.748 38.6357 183.93C38.6357 183.386 38.5782 182.927 38.4632 182.552C38.3502 182.175 38.1872 181.89 37.9742 181.696C37.7632 181.5 37.5118 181.402 37.2199 181.402C36.7789 181.402 36.4326 181.619 36.1812 182.054C35.9298 182.488 35.803 183.114 35.8009 183.93C35.8009 184.475 35.8573 184.936 35.9703 185.314C36.0853 185.689 36.2483 185.973 36.4593 186.167C36.6702 186.359 36.9237 186.455 37.2199 186.455ZM40.8402 180.654H42.0387L44.1225 185.742H44.1992L46.283 180.654H47.4815V187.199H46.5419V182.463H46.4812L44.5508 187.19H43.771L41.8406 182.46H41.7798V187.199H40.8402V180.654Z" fill="#B7CDFD" style="mix-blend-mode:screen"/>
<path d="M26.6495 243.418V235.236H27.1737V243.418H26.6495ZM28.2891 237.774C28.255 237.471 28.1143 237.237 27.8672 237.07C27.62 236.902 27.3089 236.818 26.9339 236.818C26.6655 236.818 26.4332 236.861 26.2372 236.946C26.0412 237.029 25.8888 237.144 25.7802 237.291C25.6737 237.436 25.6204 237.601 25.6204 237.786C25.6204 237.942 25.6566 238.076 25.729 238.189C25.8036 238.302 25.9006 238.397 26.0199 238.474C26.1413 238.548 26.2713 238.611 26.4098 238.662C26.5483 238.711 26.6815 238.752 26.8093 238.784L27.4485 238.95C27.6573 239.001 27.8714 239.07 28.0909 239.157C28.3104 239.245 28.5138 239.36 28.7013 239.503C28.8888 239.645 29.0401 239.822 29.1552 240.033C29.2724 240.244 29.331 240.497 29.331 240.791C29.331 241.161 29.2351 241.491 29.0433 241.778C28.8537 242.066 28.5778 242.293 28.2156 242.459C27.8555 242.625 27.4197 242.708 26.9084 242.708C26.4183 242.708 25.9943 242.631 25.6364 242.475C25.2784 242.319 24.9982 242.099 24.7958 241.813C24.5934 241.526 24.4815 241.185 24.4602 240.791H25.451C25.4702 241.027 25.5469 241.224 25.6811 241.382C25.8175 241.537 25.9911 241.654 26.2021 241.73C26.4151 241.805 26.6484 241.842 26.902 241.842C27.1811 241.842 27.4293 241.798 27.6467 241.711C27.8661 241.622 28.0387 241.498 28.1644 241.34C28.2901 241.181 28.353 240.994 28.353 240.781C28.353 240.587 28.2976 240.428 28.1868 240.305C28.0781 240.181 27.93 240.079 27.7425 239.998C27.5572 239.917 27.3473 239.846 27.1129 239.784L26.3395 239.573C25.8153 239.43 25.3999 239.22 25.093 238.943C24.7884 238.666 24.636 238.3 24.636 237.844C24.636 237.467 24.7383 237.138 24.9428 236.856C25.1474 236.575 25.4244 236.357 25.7738 236.201C26.1232 236.044 26.5174 235.965 26.9563 235.965C27.3995 235.965 27.7905 236.042 28.1293 236.198C28.4702 236.354 28.7386 236.568 28.9347 236.84C29.1307 237.111 29.233 237.422 29.2415 237.774H28.2891ZM32.9049 236.054V242.6H31.9142V237.045H31.8758L30.3097 238.068V237.122L31.9429 236.054H32.9049ZM36.9543 242.708C36.4493 242.706 36.0178 242.573 35.6599 242.309C35.3019 242.045 35.0281 241.66 34.8385 241.155C34.6489 240.65 34.5541 240.042 34.5541 239.33C34.5541 238.621 34.6489 238.014 34.8385 237.512C35.0303 237.009 35.3051 236.625 35.6631 236.361C36.0232 236.097 36.4536 235.965 36.9543 235.965C37.455 235.965 37.8843 236.098 38.2423 236.364C38.6002 236.628 38.874 237.012 39.0637 237.515C39.2554 238.015 39.3513 238.621 39.3513 239.33C39.3513 240.044 39.2565 240.653 39.0669 241.158C38.8772 241.661 38.6034 242.046 38.2455 242.312C37.8875 242.576 37.4571 242.708 36.9543 242.708ZM36.9543 241.855C37.3975 241.855 37.7437 241.639 37.993 241.206C38.2444 240.774 38.3701 240.148 38.3701 239.33C38.3701 238.787 38.3126 238.328 38.1975 237.953C38.0846 237.575 37.9216 237.29 37.7085 237.096C37.4976 236.9 37.2462 236.802 36.9543 236.802C36.5132 236.802 36.167 237.019 35.9156 237.454C35.6642 237.889 35.5374 238.514 35.5352 239.33C35.5352 239.876 35.5917 240.337 35.7046 240.714C35.8197 241.089 35.9827 241.373 36.1936 241.567C36.4046 241.759 36.6581 241.855 36.9543 241.855ZM40.5746 236.054H41.7731L43.8569 241.142H43.9336L46.0174 236.054H47.2159V242.6H46.2763V237.863H46.2156L44.2852 242.59H43.5053L41.5749 237.86H41.5142V242.6H40.5746V236.054Z" fill="#B7CDFD" style="mix-blend-mode:screen"/>
<mask id="path-6-inside-1_50_2964" fill="white">
<path d="M60 12H661V289H64C61.7909 289 60 287.209 60 285V12Z"/>
</mask>
<path d="M60 12H661H60ZM661 290H64C61.2386 290 59 287.761 59 285H61C61 286.657 62.3431 288 64 288H661V290ZM64 290C61.2386 290 59 287.761 59 285V12H61V285C61 286.657 62.3431 288 64 288V290ZM661 12V289V12Z" fill="#3676E3" style="mix-blend-mode:screen" mask="url(#path-6-inside-1_50_2964)"/>
<g opacity="0.5">
<line x1="83.2109" y1="13.248" x2="83.2109" y2="289" stroke="#3676E3" stroke-width="0.5" stroke-dasharray="2 2" style="mix-blend-mode:screen"/>
<line x1="226.721" y1="13.248" x2="226.721" y2="289" stroke="#3676E3" stroke-width="0.5" stroke-dasharray="2 2" style="mix-blend-mode:screen"/>
<line x1="370.229" y1="13.248" x2="370.229" y2="289" stroke="#3676E3" stroke-width="0.5" stroke-dasharray="2 2" style="mix-blend-mode:screen"/>
<line x1="513.739" y1="13.248" x2="513.739" y2="289" stroke="#3676E3" stroke-width="0.5" stroke-dasharray="2 2" style="mix-blend-mode:screen"/>
<line x1="657.249" y1="13.248" x2="657.249" y2="289" stroke="#3676E3" stroke-width="0.5" stroke-dasharray="2 2" style="mix-blend-mode:screen"/>
</g>
<g opacity="0.5">
<line x1="60" y1="15.75" x2="656.999" y2="15.75" stroke="#3676E3" stroke-width="0.5" stroke-dasharray="2 2" style="mix-blend-mode:screen"/>
<line x1="60" y1="71.7695" x2="656.999" y2="71.7695" stroke="#3676E3" stroke-width="0.5" stroke-dasharray="2 2" style="mix-blend-mode:screen"/>
<line x1="60" y1="127.791" x2="656.999" y2="127.791" stroke="#3676E3" stroke-width="0.5" stroke-dasharray="2 2" style="mix-blend-mode:screen"/>
<line x1="60" y1="183.811" x2="656.999" y2="183.811" stroke="#3676E3" stroke-width="0.5" stroke-dasharray="2 2" style="mix-blend-mode:screen"/>
<line x1="60" y1="239.832" x2="656.999" y2="239.832" stroke="#3676E3" stroke-width="0.5" stroke-dasharray="2 2" style="mix-blend-mode:screen"/>
</g>
<path d="M514.072 159.695C591.559 165.799 658.34 206.65 658.34 206.65V287.753H83.652V73.1406C136.159 97.0877 167.421 147.173 224.516 132.774C281.612 118.374 323.923 118.374 370.823 132.774C417.723 147.173 436.585 153.59 514.072 159.695Z" fill="url(#paint0_linear_50_2964)" fill-opacity="0.2"/>
<path d="M514.072 159.695C591.559 165.799 658.34 206.65 658.34 206.65V287.753H83.652V73.1406C136.159 97.0877 167.421 147.173 224.516 132.774C281.612 118.374 323.923 118.374 370.823 132.774C417.723 147.173 436.585 153.59 514.072 159.695Z" fill="url(#paint1_radial_50_2964)" fill-opacity="0.5" style="mix-blend-mode:overlay"/>
<g filter="url(#filter0_d_50_2964)">
<path d="M658.34 206.65C658.34 206.65 591.558 165.799 514.072 159.695C436.585 153.59 417.723 147.173 370.823 132.774C323.923 118.374 281.611 118.374 224.516 132.774C167.42 147.173 137.853 97.0877 85.3457 73.1406" stroke="#FF00D6" stroke-width="2" stroke-linecap="round" shape-rendering="crispEdges"/>
</g>
<rect width="6.44718" height="4.87343" rx="2.43671" transform="matrix(-0.891145 -0.453719 -0.333614 0.94271 660.891 205.09)" fill="#FF00D6"/>
<rect width="6.26183" height="4.97967" rx="2.48984" transform="matrix(-0.989324 -0.145729 -0.101816 0.994803 518.066 157.736)" fill="#FF00D6"/>
<rect width="6.31042" height="4.95233" rx="2.47616" transform="matrix(-0.963719 -0.266919 -0.188974 0.981982 374.361 131.16)" fill="#FF00D6"/>
<rect width="6.26799" height="4.97623" rx="2.48811" transform="matrix(-0.986082 0.166257 0.116353 0.993208 229.947 129.385)" fill="#FF00D6"/>
<rect width="6.32113" height="4.94625" rx="2.47312" transform="matrix(-0.95806 -0.286569 -0.203481 0.979079 87.4727 71.6875)" fill="#FF00D6"/>
<path d="M226.761 139.442C145.71 129.529 83.0107 164.849 83.0107 164.849V288.376H656.999V34C656.999 34 556.066 79.9635 512.227 110.322C468.387 140.681 404.158 164.225 370.004 164.225C335.85 164.225 307.813 149.355 226.761 139.442Z" fill="url(#paint2_linear_50_2964)" fill-opacity="0.2"/>
<path d="M226.761 139.442C145.71 129.529 83.0107 164.849 83.0107 164.849V288.376H656.999V34C656.999 34 556.066 79.9635 512.227 110.322C468.387 140.681 404.158 164.225 370.004 164.225C335.85 164.225 307.813 149.355 226.761 139.442Z" fill="url(#paint3_radial_50_2964)" fill-opacity="0.5" style="mix-blend-mode:overlay"/>
<g filter="url(#filter1_d_50_2964)">
<path d="M85.0498 164.225C85.0498 164.225 145.711 129.529 226.763 139.442C307.815 149.355 335.852 164.225 370.005 164.225C404.159 164.225 468.389 140.681 512.228 110.322C556.068 79.9635 657 33.5 657 33.5" stroke="#1ED2E6" stroke-width="2" stroke-linecap="round"/>
</g>
<rect width="6.44718" height="4.87343" rx="2.43671" transform="matrix(0.891145 -0.453719 0.333614 0.94271 80.4111 164.227)" fill="#1ED2E6"/>
<rect x="368.119" y="161.73" width="6.24154" height="4.99099" rx="2.4955" fill="#1ED2E6"/>
<rect x="223.88" y="137.73" width="6.24154" height="4.99099" rx="2.4955" fill="#1ED2E6"/>
<rect width="6.55076" height="4.81793" rx="2.40897" transform="matrix(0.931993 -0.362477 0.207907 0.978149 510.175 108.156)" fill="#1ED2E6"/>
<rect width="6.06525" height="4.14332" rx="2.07166" transform="matrix(0.900026 -0.435837 0.535686 0.844417 653.321 33)" fill="#1ED2E6"/>
<g opacity="0.5">
<path d="M676.882 21L679.81 15.2088V15.1577H676.435V14.4545H680.628V15.196L677.713 21H676.882ZM683.813 21.0895C683.332 21.0895 682.922 20.9585 682.583 20.6964C682.244 20.4322 681.985 20.0497 681.806 19.549C681.627 19.0462 681.538 18.4389 681.538 17.7273C681.538 17.0199 681.627 16.4158 681.806 15.9151C681.987 15.4123 682.247 15.0288 682.586 14.7646C682.927 14.4982 683.336 14.3651 683.813 14.3651C684.291 14.3651 684.699 14.4982 685.038 14.7646C685.378 15.0288 685.638 15.4123 685.817 15.9151C685.998 16.4158 686.089 17.0199 686.089 17.7273C686.089 18.4389 686 19.0462 685.821 19.549C685.642 20.0497 685.383 20.4322 685.044 20.6964C684.705 20.9585 684.295 21.0895 683.813 21.0895ZM683.813 20.3864C684.291 20.3864 684.661 20.1562 684.926 19.696C685.19 19.2358 685.322 18.5795 685.322 17.7273C685.322 17.1605 685.261 16.6779 685.14 16.2795C685.021 15.881 684.848 15.5774 684.622 15.3686C684.398 15.1598 684.129 15.0554 683.813 15.0554C683.34 15.0554 682.971 15.2887 682.704 15.7553C682.438 16.2198 682.305 16.8771 682.305 17.7273C682.305 18.294 682.365 18.7756 682.484 19.1719C682.603 19.5682 682.775 19.8697 682.998 20.0763C683.224 20.283 683.496 20.3864 683.813 20.3864ZM690.64 19.7727V19.4276C690.64 19.1889 690.689 18.9705 690.787 18.7724C690.887 18.5721 691.032 18.4123 691.222 18.293C691.414 18.1715 691.646 18.1108 691.919 18.1108C692.196 18.1108 692.428 18.1715 692.615 18.293C692.803 18.4123 692.945 18.5721 693.04 18.7724C693.136 18.9705 693.184 19.1889 693.184 19.4276V19.7727C693.184 20.0114 693.135 20.2308 693.037 20.4311C692.941 20.6293 692.799 20.7891 692.609 20.9105C692.421 21.0298 692.191 21.0895 691.919 21.0895C691.642 21.0895 691.408 21.0298 691.219 20.9105C691.029 20.7891 690.885 20.6293 690.787 20.4311C690.689 20.2308 690.64 20.0114 690.64 19.7727ZM691.292 19.4276V19.7727C691.292 19.9709 691.339 20.1488 691.433 20.3065C691.527 20.462 691.688 20.5398 691.919 20.5398C692.142 20.5398 692.3 20.462 692.392 20.3065C692.485 20.1488 692.532 19.9709 692.532 19.7727V19.4276C692.532 19.2294 692.487 19.0526 692.398 18.897C692.309 18.7393 692.149 18.6605 691.919 18.6605C691.695 18.6605 691.534 18.7393 691.436 18.897C691.34 19.0526 691.292 19.2294 691.292 19.4276ZM687.38 16.027V15.6818C687.38 15.4432 687.429 15.2248 687.527 15.0266C687.627 14.8263 687.772 14.6665 687.962 14.5472C688.154 14.4258 688.386 14.3651 688.659 14.3651C688.936 14.3651 689.168 14.4258 689.355 14.5472C689.543 14.6665 689.685 14.8263 689.78 15.0266C689.876 15.2248 689.924 15.4432 689.924 15.6818V16.027C689.924 16.2656 689.875 16.4851 689.777 16.6854C689.681 16.8835 689.539 17.0433 689.349 17.1648C689.161 17.2841 688.931 17.3438 688.659 17.3438C688.382 17.3438 688.148 17.2841 687.959 17.1648C687.769 17.0433 687.625 16.8835 687.527 16.6854C687.429 16.4851 687.38 16.2656 687.38 16.027ZM688.032 15.6818V16.027C688.032 16.2251 688.079 16.4031 688.173 16.5607C688.267 16.7163 688.429 16.794 688.659 16.794C688.882 16.794 689.04 16.7163 689.132 16.5607C689.225 16.4031 689.272 16.2251 689.272 16.027V15.6818C689.272 15.4837 689.228 15.3068 689.138 15.1513C689.049 14.9936 688.889 14.9148 688.659 14.9148C688.435 14.9148 688.274 14.9936 688.176 15.1513C688.08 15.3068 688.032 15.4837 688.032 15.6818ZM687.623 21L692.123 14.4545H692.852L688.352 21H687.623Z" fill="#B7CDFD" style="mix-blend-mode:screen"/>
<path d="M678.351 76.4899C678.082 76.4856 677.814 76.4345 677.545 76.3365C677.277 76.2385 677.032 76.0733 676.81 75.8411C676.589 75.6067 676.411 75.2903 676.277 74.8919C676.142 74.4913 676.075 73.9885 676.075 73.3833C676.075 72.8038 676.13 72.2903 676.238 71.8429C676.347 71.3933 676.505 71.0151 676.711 70.7083C676.918 70.3993 677.167 70.165 677.459 70.0051C677.753 69.8453 678.085 69.7654 678.453 69.7654C678.82 69.7654 679.146 69.839 679.431 69.986C679.719 70.1309 679.953 70.3333 680.134 70.5932C680.315 70.8532 680.433 71.1525 680.486 71.4913H679.706C679.634 71.1973 679.493 70.9533 679.284 70.7594C679.075 70.5655 678.798 70.4686 678.453 70.4686C677.946 70.4686 677.547 70.6891 677.255 71.1301C676.965 71.5712 676.819 72.1902 676.817 72.987H676.868C676.987 72.8059 677.129 72.6515 677.293 72.5236C677.459 72.3936 677.642 72.2935 677.843 72.2232C678.043 72.1529 678.255 72.1177 678.479 72.1177C678.854 72.1177 679.197 72.2115 679.508 72.399C679.819 72.5843 680.068 72.8411 680.256 73.1692C680.443 73.4952 680.537 73.8691 680.537 74.291C680.537 74.6958 680.446 75.0666 680.265 75.4032C680.084 75.7377 679.83 76.0041 679.501 76.2022C679.175 76.3983 678.792 76.4941 678.351 76.4899ZM678.351 75.7868C678.619 75.7868 678.86 75.7196 679.073 75.5854C679.288 75.4512 679.458 75.2711 679.581 75.0453C679.707 74.8194 679.77 74.568 679.77 74.291C679.77 74.0204 679.709 73.7743 679.588 73.5527C679.468 73.329 679.303 73.1511 679.092 73.019C678.884 72.8869 678.645 72.8208 678.376 72.8208C678.174 72.8208 677.985 72.8613 677.811 72.9423C677.636 73.0211 677.483 73.1298 677.35 73.2683C677.221 73.4068 677.118 73.5655 677.044 73.7445C676.969 73.9213 676.932 74.1078 676.932 74.3038C676.932 74.5637 676.993 74.8066 677.114 75.0325C677.238 75.2583 677.406 75.4405 677.619 75.579C677.834 75.7175 678.078 75.7868 678.351 75.7868ZM683.839 76.4899C683.464 76.4899 683.127 76.4153 682.826 76.2662C682.526 76.117 682.285 75.9125 682.104 75.6525C681.923 75.3926 681.824 75.0964 681.807 74.764H682.574C682.603 75.0602 682.738 75.3052 682.976 75.4991C683.217 75.6909 683.505 75.7868 683.839 75.7868C684.108 75.7868 684.346 75.7239 684.555 75.5982C684.766 75.4725 684.931 75.2999 685.051 75.0804C685.172 74.8588 685.233 74.6085 685.233 74.3294C685.233 74.0439 685.17 73.7892 685.044 73.5655C684.921 73.3397 684.75 73.1618 684.533 73.0318C684.315 72.9018 684.067 72.8358 683.788 72.8336C683.588 72.8315 683.382 72.8624 683.171 72.9263C682.96 72.9881 682.787 73.068 682.65 73.166L681.909 73.0765L682.305 69.8549H685.706V70.5581H682.97L682.74 72.4885H682.778C682.912 72.3819 683.081 72.2935 683.283 72.2232C683.486 72.1529 683.696 72.1177 683.916 72.1177C684.316 72.1177 684.673 72.2136 684.987 72.4054C685.302 72.595 685.549 72.8549 685.728 73.1852C685.909 73.5154 686 73.8926 686 74.3166C686 74.7342 685.906 75.1071 685.718 75.4352C685.533 75.7612 685.277 76.019 684.951 76.2086C684.625 76.3961 684.255 76.4899 683.839 76.4899ZM690.606 75.1731V74.8279C690.606 74.5893 690.655 74.3709 690.753 74.1728C690.853 73.9725 690.998 73.8127 691.188 73.6934C691.379 73.5719 691.612 73.5112 691.884 73.5112C692.161 73.5112 692.394 73.5719 692.581 73.6934C692.769 73.8127 692.91 73.9725 693.006 74.1728C693.102 74.3709 693.15 74.5893 693.15 74.8279V75.1731C693.15 75.4118 693.101 75.6312 693.003 75.8315C692.907 76.0297 692.764 76.1895 692.575 76.3109C692.387 76.4302 692.157 76.4899 691.884 76.4899C691.607 76.4899 691.374 76.4302 691.184 76.3109C690.995 76.1895 690.851 76.0297 690.753 75.8315C690.655 75.6312 690.606 75.4118 690.606 75.1731ZM691.258 74.8279V75.1731C691.258 75.3713 691.305 75.5492 691.399 75.7069C691.492 75.8624 691.654 75.9402 691.884 75.9402C692.108 75.9402 692.266 75.8624 692.357 75.7069C692.451 75.5492 692.498 75.3713 692.498 75.1731V74.8279C692.498 74.6298 692.453 74.4529 692.364 74.2974C692.274 74.1397 692.115 74.0609 691.884 74.0609C691.661 74.0609 691.5 74.1397 691.402 74.2974C691.306 74.4529 691.258 74.6298 691.258 74.8279ZM687.346 71.4274V71.0822C687.346 70.8436 687.395 70.6252 687.493 70.427C687.593 70.2267 687.738 70.0669 687.928 69.9476C688.119 69.8262 688.352 69.7654 688.624 69.7654C688.901 69.7654 689.134 69.8262 689.321 69.9476C689.509 70.0669 689.65 70.2267 689.746 70.427C689.842 70.6252 689.89 70.8436 689.89 71.0822V71.4274C689.89 71.666 689.841 71.8855 689.743 72.0858C689.647 72.2839 689.504 72.4437 689.315 72.5652C689.127 72.6845 688.897 72.7441 688.624 72.7441C688.347 72.7441 688.114 72.6845 687.925 72.5652C687.735 72.4437 687.591 72.2839 687.493 72.0858C687.395 71.8855 687.346 71.666 687.346 71.4274ZM687.998 71.0822V71.4274C687.998 71.6255 688.045 71.8034 688.139 71.9611C688.232 72.1167 688.394 72.1944 688.624 72.1944C688.848 72.1944 689.006 72.1167 689.097 71.9611C689.191 71.8034 689.238 71.6255 689.238 71.4274V71.0822C689.238 70.8841 689.193 70.7072 689.104 70.5517C689.014 70.394 688.855 70.3152 688.624 70.3152C688.401 70.3152 688.24 70.394 688.142 70.5517C688.046 70.7072 687.998 70.8841 687.998 71.0822ZM687.589 76.4004L692.089 69.8549H692.818L688.318 76.4004H687.589Z" fill="#B7CDFD" style="mix-blend-mode:screen"/>
<path d="M678.351 131.89C678.082 131.886 677.814 131.835 677.545 131.737C677.277 131.639 677.032 131.474 676.81 131.241C676.589 131.007 676.411 130.691 676.277 130.292C676.142 129.892 676.075 129.389 676.075 128.784C676.075 128.204 676.13 127.691 676.238 127.243C676.347 126.794 676.505 126.415 676.711 126.109C676.918 125.8 677.167 125.565 677.459 125.406C677.753 125.246 678.085 125.166 678.453 125.166C678.82 125.166 679.146 125.239 679.431 125.386C679.719 125.531 679.953 125.734 680.134 125.994C680.315 126.254 680.433 126.553 680.486 126.892H679.706C679.634 126.598 679.493 126.354 679.284 126.16C679.075 125.966 678.798 125.869 678.453 125.869C677.946 125.869 677.547 126.089 677.255 126.531C676.965 126.972 676.819 127.591 676.817 128.387H676.868C676.987 128.206 677.129 128.052 677.293 127.924C677.459 127.794 677.642 127.694 677.843 127.624C678.043 127.553 678.255 127.518 678.479 127.518C678.854 127.518 679.197 127.612 679.508 127.799C679.819 127.985 680.068 128.241 680.256 128.57C680.443 128.896 680.537 129.27 680.537 129.691C680.537 130.096 680.446 130.467 680.265 130.804C680.084 131.138 679.83 131.404 679.501 131.603C679.175 131.799 678.792 131.895 678.351 131.89ZM678.351 131.187C678.619 131.187 678.86 131.12 679.073 130.986C679.288 130.852 679.458 130.672 679.581 130.446C679.707 130.22 679.77 129.968 679.77 129.691C679.77 129.421 679.709 129.175 679.588 128.953C679.468 128.729 679.303 128.551 679.092 128.419C678.884 128.287 678.645 128.221 678.376 128.221C678.174 128.221 677.985 128.262 677.811 128.343C677.636 128.422 677.483 128.53 677.35 128.669C677.221 128.807 677.118 128.966 677.044 129.145C676.969 129.322 676.932 129.508 676.932 129.704C676.932 129.964 676.993 130.207 677.114 130.433C677.238 130.659 677.406 130.841 677.619 130.979C677.834 131.118 678.078 131.187 678.351 131.187ZM683.929 131.89C683.447 131.89 683.037 131.759 682.698 131.497C682.359 131.233 682.101 130.85 681.922 130.35C681.743 129.847 681.653 129.24 681.653 128.528C681.653 127.821 681.743 127.217 681.922 126.716C682.103 126.213 682.363 125.83 682.701 125.565C683.042 125.299 683.451 125.166 683.929 125.166C684.406 125.166 684.814 125.299 685.153 125.565C685.494 125.83 685.754 126.213 685.933 126.716C686.114 127.217 686.204 127.821 686.204 128.528C686.204 129.24 686.115 129.847 685.936 130.35C685.757 130.85 685.498 131.233 685.159 131.497C684.82 131.759 684.41 131.89 683.929 131.89ZM683.929 131.187C684.406 131.187 684.777 130.957 685.041 130.497C685.305 130.037 685.437 129.38 685.437 128.528C685.437 127.961 685.377 127.479 685.255 127.08C685.136 126.682 684.963 126.378 684.737 126.169C684.514 125.961 684.244 125.856 683.929 125.856C683.456 125.856 683.086 126.089 682.82 126.556C682.553 127.021 682.42 127.678 682.42 128.528C682.42 129.095 682.48 129.576 682.599 129.973C682.718 130.369 682.89 130.67 683.114 130.877C683.34 131.084 683.611 131.187 683.929 131.187ZM690.755 130.574V130.228C690.755 129.99 690.804 129.771 690.902 129.573C691.003 129.373 691.147 129.213 691.337 129.094C691.529 128.972 691.761 128.912 692.034 128.912C692.311 128.912 692.543 128.972 692.731 129.094C692.918 129.213 693.06 129.373 693.156 129.573C693.252 129.771 693.299 129.99 693.299 130.228V130.574C693.299 130.812 693.25 131.032 693.152 131.232C693.057 131.43 692.914 131.59 692.724 131.711C692.537 131.831 692.307 131.89 692.034 131.89C691.757 131.89 691.524 131.831 691.334 131.711C691.144 131.59 691 131.43 690.902 131.232C690.804 131.032 690.755 130.812 690.755 130.574ZM691.407 130.228V130.574C691.407 130.772 691.454 130.95 691.548 131.107C691.642 131.263 691.804 131.341 692.034 131.341C692.258 131.341 692.415 131.263 692.507 131.107C692.601 130.95 692.647 130.772 692.647 130.574V130.228C692.647 130.03 692.603 129.853 692.513 129.698C692.424 129.54 692.264 129.461 692.034 129.461C691.81 129.461 691.649 129.54 691.551 129.698C691.455 129.853 691.407 130.03 691.407 130.228ZM687.495 126.828V126.483C687.495 126.244 687.544 126.026 687.642 125.827C687.743 125.627 687.888 125.467 688.077 125.348C688.269 125.227 688.501 125.166 688.774 125.166C689.051 125.166 689.283 125.227 689.471 125.348C689.658 125.467 689.8 125.627 689.896 125.827C689.992 126.026 690.04 126.244 690.04 126.483V126.828C690.04 127.066 689.991 127.286 689.892 127.486C689.797 127.684 689.654 127.844 689.464 127.966C689.277 128.085 689.047 128.145 688.774 128.145C688.497 128.145 688.264 128.085 688.074 127.966C687.884 127.844 687.741 127.684 687.642 127.486C687.544 127.286 687.495 127.066 687.495 126.828ZM688.147 126.483V126.828C688.147 127.026 688.194 127.204 688.288 127.362C688.382 127.517 688.544 127.595 688.774 127.595C688.998 127.595 689.155 127.517 689.247 127.362C689.341 127.204 689.388 127.026 689.388 126.828V126.483C689.388 126.284 689.343 126.108 689.253 125.952C689.164 125.794 689.004 125.716 688.774 125.716C688.55 125.716 688.389 125.794 688.291 125.952C688.195 126.108 688.147 126.284 688.147 126.483ZM687.738 131.801L692.238 125.255H692.967L688.467 131.801H687.738Z" fill="#B7CDFD" style="mix-blend-mode:screen"/>
<path d="M678.223 187.289C677.848 187.289 677.51 187.214 677.21 187.065C676.909 186.916 676.669 186.711 676.488 186.451C676.306 186.191 676.207 185.895 676.19 185.563H676.957C676.987 185.859 677.121 186.104 677.36 186.298C677.601 186.49 677.888 186.586 678.223 186.586C678.491 186.586 678.73 186.523 678.939 186.397C679.15 186.271 679.315 186.099 679.434 185.879C679.556 185.658 679.616 185.407 679.616 185.128C679.616 184.843 679.554 184.588 679.428 184.364C679.304 184.138 679.134 183.961 678.917 183.831C678.699 183.701 678.451 183.635 678.172 183.632C677.972 183.63 677.766 183.661 677.555 183.725C677.344 183.787 677.17 183.867 677.034 183.965L676.293 183.875L676.689 180.654H680.089V181.357H677.354L677.124 183.287H677.162C677.296 183.181 677.464 183.092 677.667 183.022C677.869 182.952 678.08 182.917 678.3 182.917C678.7 182.917 679.057 183.012 679.37 183.204C679.686 183.394 679.933 183.654 680.112 183.984C680.293 184.314 680.384 184.691 680.384 185.115C680.384 185.533 680.29 185.906 680.102 186.234C679.917 186.56 679.661 186.818 679.335 187.007C679.009 187.195 678.638 187.289 678.223 187.289ZM683.699 187.289C683.324 187.289 682.986 187.214 682.685 187.065C682.385 186.916 682.144 186.711 681.963 186.451C681.782 186.191 681.683 185.895 681.666 185.563H682.433C682.463 185.859 682.597 186.104 682.836 186.298C683.076 186.49 683.364 186.586 683.699 186.586C683.967 186.586 684.206 186.523 684.415 186.397C684.625 186.271 684.791 186.099 684.91 185.879C685.031 185.658 685.092 185.407 685.092 185.128C685.092 184.843 685.029 184.588 684.903 184.364C684.78 184.138 684.609 183.961 684.392 183.831C684.175 183.701 683.927 183.635 683.647 183.632C683.447 183.63 683.242 183.661 683.031 183.725C682.82 183.787 682.646 183.867 682.51 183.965L681.768 183.875L682.165 180.654H685.565V181.357H682.829L682.599 183.287H682.638C682.772 183.181 682.94 183.092 683.142 183.022C683.345 182.952 683.556 182.917 683.775 182.917C684.176 182.917 684.533 183.012 684.846 183.204C685.161 183.394 685.408 183.654 685.587 183.984C685.769 184.314 685.859 184.691 685.859 185.115C685.859 185.533 685.765 185.906 685.578 186.234C685.392 186.56 685.137 186.818 684.811 187.007C684.485 187.195 684.114 187.289 683.699 187.289ZM690.465 185.972V185.627C690.465 185.388 690.514 185.17 690.612 184.972C690.713 184.771 690.857 184.612 691.047 184.492C691.239 184.371 691.471 184.31 691.744 184.31C692.021 184.31 692.253 184.371 692.441 184.492C692.628 184.612 692.77 184.771 692.866 184.972C692.961 185.17 693.009 185.388 693.009 185.627V185.972C693.009 186.211 692.96 186.43 692.862 186.63C692.767 186.828 692.624 186.988 692.434 187.11C692.247 187.229 692.017 187.289 691.744 187.289C691.467 187.289 691.233 187.229 691.044 187.11C690.854 186.988 690.71 186.828 690.612 186.63C690.514 186.43 690.465 186.211 690.465 185.972ZM691.117 185.627V185.972C691.117 186.17 691.164 186.348 691.258 186.506C691.352 186.661 691.514 186.739 691.744 186.739C691.968 186.739 692.125 186.661 692.217 186.506C692.311 186.348 692.357 186.17 692.357 185.972V185.627C692.357 185.429 692.313 185.252 692.223 185.096C692.134 184.939 691.974 184.86 691.744 184.86C691.52 184.86 691.359 184.939 691.261 185.096C691.165 185.252 691.117 185.429 691.117 185.627ZM687.205 182.226V181.881C687.205 181.642 687.254 181.424 687.352 181.226C687.453 181.026 687.597 180.866 687.787 180.746C687.979 180.625 688.211 180.564 688.484 180.564C688.761 180.564 688.993 180.625 689.181 180.746C689.368 180.866 689.51 181.026 689.606 181.226C689.702 181.424 689.749 181.642 689.749 181.881V182.226C689.749 182.465 689.7 182.684 689.602 182.885C689.507 183.083 689.364 183.243 689.174 183.364C688.987 183.483 688.757 183.543 688.484 183.543C688.207 183.543 687.974 183.483 687.784 183.364C687.594 183.243 687.45 183.083 687.352 182.885C687.254 182.684 687.205 182.465 687.205 182.226ZM687.857 181.881V182.226C687.857 182.424 687.904 182.602 687.998 182.76C688.092 182.915 688.254 182.993 688.484 182.993C688.708 182.993 688.865 182.915 688.957 182.76C689.051 182.602 689.097 182.424 689.097 182.226V181.881C689.097 181.683 689.053 181.506 688.963 181.35C688.874 181.193 688.714 181.114 688.484 181.114C688.26 181.114 688.099 181.193 688.001 181.35C687.905 181.506 687.857 181.683 687.857 181.881ZM687.448 187.199L691.948 180.654H692.677L688.177 187.199H687.448Z" fill="#B7CDFD" style="mix-blend-mode:screen"/>
<path d="M678.223 242.689C677.848 242.689 677.51 242.615 677.21 242.465C676.909 242.316 676.669 242.112 676.488 241.852C676.306 241.592 676.207 241.296 676.19 240.963H676.957C676.987 241.259 677.121 241.504 677.36 241.698C677.601 241.89 677.888 241.986 678.223 241.986C678.491 241.986 678.73 241.923 678.939 241.797C679.15 241.672 679.315 241.499 679.434 241.28C679.556 241.058 679.616 240.808 679.616 240.529C679.616 240.243 679.554 239.988 679.428 239.765C679.304 239.539 679.134 239.361 678.917 239.231C678.699 239.101 678.451 239.035 678.172 239.033C677.972 239.031 677.766 239.062 677.555 239.126C677.344 239.187 677.17 239.267 677.034 239.365L676.293 239.276L676.689 236.054H680.089V236.757H677.354L677.124 238.688H677.162C677.296 238.581 677.464 238.493 677.667 238.422C677.869 238.352 678.08 238.317 678.3 238.317C678.7 238.317 679.057 238.413 679.37 238.605C679.686 238.794 679.933 239.054 680.112 239.384C680.293 239.715 680.384 240.092 680.384 240.516C680.384 240.933 680.29 241.306 680.102 241.634C679.917 241.96 679.661 242.218 679.335 242.408C679.009 242.595 678.638 242.689 678.223 242.689ZM683.788 242.689C683.307 242.689 682.896 242.558 682.558 242.296C682.219 242.032 681.96 241.649 681.781 241.149C681.602 240.646 681.513 240.039 681.513 239.327C681.513 238.619 681.602 238.015 681.781 237.515C681.962 237.012 682.222 236.628 682.561 236.364C682.902 236.098 683.311 235.965 683.788 235.965C684.265 235.965 684.673 236.098 685.012 236.364C685.353 236.628 685.613 237.012 685.792 237.515C685.973 238.015 686.064 238.619 686.064 239.327C686.064 240.039 685.974 240.646 685.795 241.149C685.616 241.649 685.357 242.032 685.019 242.296C684.68 242.558 684.27 242.689 683.788 242.689ZM683.788 241.986C684.265 241.986 684.636 241.756 684.9 241.296C685.165 240.835 685.297 240.179 685.297 239.327C685.297 238.76 685.236 238.278 685.114 237.879C684.995 237.481 684.823 237.177 684.597 236.968C684.373 236.759 684.103 236.655 683.788 236.655C683.315 236.655 682.945 236.888 682.679 237.355C682.413 237.819 682.28 238.477 682.28 239.327C682.28 239.894 682.339 240.375 682.459 240.771C682.578 241.168 682.749 241.469 682.973 241.676C683.199 241.883 683.471 241.986 683.788 241.986ZM690.615 241.372V241.027C690.615 240.789 690.664 240.57 690.762 240.372C690.862 240.172 691.007 240.012 691.196 239.893C691.388 239.771 691.62 239.71 691.893 239.71C692.17 239.71 692.402 239.771 692.59 239.893C692.777 240.012 692.919 240.172 693.015 240.372C693.111 240.57 693.159 240.789 693.159 241.027V241.372C693.159 241.611 693.11 241.83 693.012 242.031C692.916 242.229 692.773 242.389 692.584 242.51C692.396 242.629 692.166 242.689 691.893 242.689C691.616 242.689 691.383 242.629 691.193 242.51C691.004 242.389 690.86 242.229 690.762 242.031C690.664 241.83 690.615 241.611 690.615 241.372ZM691.267 241.027V241.372C691.267 241.57 691.314 241.748 691.407 241.906C691.501 242.062 691.663 242.139 691.893 242.139C692.117 242.139 692.275 242.062 692.366 241.906C692.46 241.748 692.507 241.57 692.507 241.372V241.027C692.507 240.829 692.462 240.652 692.373 240.497C692.283 240.339 692.123 240.26 691.893 240.26C691.669 240.26 691.509 240.339 691.411 240.497C691.315 240.652 691.267 240.829 691.267 241.027ZM687.355 237.627V237.281C687.355 237.043 687.404 236.824 687.502 236.626C687.602 236.426 687.747 236.266 687.937 236.147C688.128 236.025 688.361 235.965 688.633 235.965C688.91 235.965 689.142 236.025 689.33 236.147C689.517 236.266 689.659 236.426 689.755 236.626C689.851 236.824 689.899 237.043 689.899 237.281V237.627C689.899 237.865 689.85 238.085 689.752 238.285C689.656 238.483 689.513 238.643 689.324 238.764C689.136 238.884 688.906 238.943 688.633 238.943C688.356 238.943 688.123 238.884 687.933 238.764C687.744 238.643 687.6 238.483 687.502 238.285C687.404 238.085 687.355 237.865 687.355 237.627ZM688.007 237.281V237.627C688.007 237.825 688.054 238.003 688.147 238.16C688.241 238.316 688.403 238.394 688.633 238.394C688.857 238.394 689.015 238.316 689.106 238.16C689.2 238.003 689.247 237.825 689.247 237.627V237.281C689.247 237.083 689.202 236.906 689.113 236.751C689.023 236.593 688.863 236.514 688.633 236.514C688.41 236.514 688.249 236.593 688.151 236.751C688.055 236.906 688.007 237.083 688.007 237.281ZM687.598 242.6L692.098 236.054H692.826L688.326 242.6H687.598Z" fill="#B7CDFD" style="mix-blend-mode:screen"/>
</g>
<path d="M72.6296 310V309.284L74.8445 306.989C75.081 306.74 75.2759 306.522 75.4293 306.334C75.5849 306.145 75.701 305.964 75.7777 305.794C75.8544 305.624 75.8928 305.442 75.8928 305.251C75.8928 305.033 75.8416 304.846 75.7393 304.688C75.6371 304.528 75.4975 304.406 75.3207 304.321C75.1438 304.233 74.9446 304.19 74.723 304.19C74.4886 304.19 74.2841 304.238 74.1094 304.333C73.9347 304.429 73.8004 304.565 73.7067 304.739C73.6129 304.914 73.5661 305.119 73.5661 305.353H72.6232C72.6232 304.955 72.7148 304.606 72.8981 304.308C73.0813 304.01 73.3327 303.778 73.6523 303.614C73.9719 303.448 74.3352 303.365 74.7422 303.365C75.1534 303.365 75.5156 303.447 75.8288 303.611C76.1442 303.773 76.3903 303.995 76.5671 304.276C76.744 304.555 76.8324 304.87 76.8324 305.222C76.8324 305.465 76.7866 305.702 76.695 305.935C76.6055 306.167 76.4489 306.426 76.2251 306.711C76.0014 306.995 75.6903 307.339 75.2919 307.744L73.9911 309.105V309.153H76.9379V310H72.6296ZM80.4279 310.109C79.9229 310.107 79.4915 309.973 79.1335 309.709C78.7756 309.445 78.5018 309.06 78.3121 308.555C78.1225 308.05 78.0277 307.442 78.0277 306.73C78.0277 306.021 78.1225 305.415 78.3121 304.912C78.5039 304.409 78.7788 304.026 79.1367 303.761C79.4968 303.497 79.9272 303.365 80.4279 303.365C80.9286 303.365 81.358 303.498 81.7159 303.765C82.0739 304.029 82.3477 304.412 82.5373 304.915C82.729 305.416 82.8249 306.021 82.8249 306.73C82.8249 307.444 82.7301 308.054 82.5405 308.559C82.3509 309.061 82.0771 309.446 81.7191 309.712C81.3612 309.977 80.9308 310.109 80.4279 310.109ZM80.4279 309.255C80.8711 309.255 81.2173 309.039 81.4666 308.607C81.718 308.174 81.8438 307.549 81.8438 306.73C81.8438 306.187 81.7862 305.728 81.6712 305.353C81.5582 304.976 81.3952 304.69 81.1822 304.496C80.9712 304.3 80.7198 304.202 80.4279 304.202C79.9869 304.202 79.6406 304.42 79.3892 304.854C79.1378 305.289 79.011 305.914 79.0089 306.73C79.0089 307.276 79.0653 307.737 79.1783 308.114C79.2933 308.489 79.4563 308.774 79.6673 308.968C79.8782 309.159 80.1317 309.255 80.4279 309.255ZM86.442 303.455V310H85.4513V304.445H85.4129L83.8469 305.468V304.522L85.48 303.455H86.442ZM90.4243 310.089C89.9662 310.089 89.5613 310.011 89.2098 309.853C88.8604 309.695 88.5866 309.478 88.3884 309.201C88.1903 308.924 88.0922 308.609 88.0944 308.255C88.0922 307.978 88.1487 307.723 88.2638 307.491C88.3809 307.257 88.5397 307.062 88.74 306.906C88.9403 306.749 89.164 306.648 89.4111 306.606V306.567C89.0851 306.489 88.8241 306.314 88.6281 306.043C88.4321 305.773 88.3351 305.462 88.3373 305.11C88.3351 304.776 88.4236 304.477 88.6025 304.215C88.7836 303.951 89.0319 303.743 89.3472 303.592C89.6626 303.441 90.0216 303.365 90.4243 303.365C90.8227 303.365 91.1785 303.442 91.4917 303.595C91.8071 303.746 92.0553 303.954 92.2364 304.218C92.4175 304.48 92.5091 304.778 92.5113 305.11C92.5091 305.462 92.409 305.773 92.2108 306.043C92.0127 306.314 91.7549 306.489 91.4374 306.567V306.606C91.6824 306.648 91.903 306.749 92.099 306.906C92.2971 307.062 92.4548 307.257 92.572 307.491C92.6913 307.723 92.752 307.978 92.7542 308.255C92.752 308.609 92.6519 308.924 92.4537 309.201C92.2556 309.478 91.9807 309.695 91.6292 309.853C91.2797 310.011 90.8781 310.089 90.4243 310.089ZM90.4243 309.281C90.6949 309.281 90.9292 309.236 91.1274 309.147C91.3256 309.055 91.479 308.928 91.5876 308.766C91.6963 308.602 91.7517 308.411 91.7538 308.191C91.7517 307.963 91.692 307.762 91.5748 307.587C91.4598 307.412 91.3032 307.275 91.105 307.175C90.9069 307.075 90.68 307.025 90.4243 307.025C90.1665 307.025 89.9374 307.075 89.7371 307.175C89.5368 307.275 89.3792 307.412 89.2641 307.587C89.1491 307.762 89.0926 307.963 89.0947 308.191C89.0926 308.411 89.1448 308.602 89.2513 308.766C89.36 308.928 89.5145 309.055 89.7148 309.147C89.915 309.236 90.1515 309.281 90.4243 309.281ZM90.4243 306.235C90.6416 306.235 90.8344 306.191 91.0028 306.104C91.1711 306.017 91.3032 305.895 91.3991 305.74C91.4971 305.584 91.5471 305.402 91.5493 305.193C91.5471 304.989 91.4981 304.81 91.4023 304.656C91.3085 304.503 91.1775 304.385 91.0091 304.301C90.8408 304.216 90.6459 304.174 90.4243 304.174C90.1984 304.174 90.0003 304.216 89.8298 304.301C89.6615 304.385 89.5305 304.503 89.4367 304.656C89.343 304.81 89.2971 304.989 89.2993 305.193C89.2971 305.402 89.344 305.584 89.4399 305.74C89.5358 305.895 89.6679 306.017 89.8362 306.104C90.0067 306.191 90.2027 306.235 90.4243 306.235Z" fill="#B7CDFD" style="mix-blend-mode:screen"/>
<path d="M215.88 310V309.284L218.094 306.989C218.331 306.74 218.526 306.522 218.679 306.334C218.835 306.145 218.951 305.964 219.028 305.794C219.104 305.624 219.143 305.442 219.143 305.251C219.143 305.033 219.092 304.846 218.989 304.688C218.887 304.528 218.748 304.406 218.571 304.321C218.394 304.233 218.195 304.19 217.973 304.19C217.739 304.19 217.534 304.238 217.359 304.333C217.185 304.429 217.05 304.565 216.957 304.739C216.863 304.914 216.816 305.119 216.816 305.353H215.873C215.873 304.955 215.965 304.606 216.148 304.308C216.331 304.01 216.583 303.778 216.902 303.614C217.222 303.448 217.585 303.365 217.992 303.365C218.403 303.365 218.766 303.447 219.079 303.611C219.394 303.773 219.64 303.995 219.817 304.276C219.994 304.555 220.082 304.87 220.082 305.222C220.082 305.465 220.037 305.702 219.945 305.935C219.855 306.167 219.699 306.426 219.475 306.711C219.251 306.995 218.94 307.339 218.542 307.744L217.241 309.105V309.153H220.188V310H215.88ZM223.678 310.109C223.173 310.107 222.741 309.973 222.384 309.709C222.026 309.445 221.752 309.06 221.562 308.555C221.373 308.05 221.278 307.442 221.278 306.73C221.278 306.021 221.373 305.415 221.562 304.912C221.754 304.409 222.029 304.026 222.387 303.761C222.747 303.497 223.177 303.365 223.678 303.365C224.179 303.365 224.608 303.498 224.966 303.765C225.324 304.029 225.598 304.412 225.787 304.915C225.979 305.416 226.075 306.021 226.075 306.73C226.075 307.444 225.98 308.054 225.79 308.559C225.601 309.061 225.327 309.446 224.969 309.712C224.611 309.977 224.181 310.109 223.678 310.109ZM223.678 309.255C224.121 309.255 224.467 309.039 224.717 308.607C224.968 308.174 225.094 307.549 225.094 306.73C225.094 306.187 225.036 305.728 224.921 305.353C224.808 304.976 224.645 304.69 224.432 304.496C224.221 304.3 223.97 304.202 223.678 304.202C223.237 304.202 222.891 304.42 222.639 304.854C222.388 305.289 222.261 305.914 222.259 306.73C222.259 307.276 222.315 307.737 222.428 308.114C222.543 308.489 222.706 308.774 222.917 308.968C223.128 309.159 223.382 309.255 223.678 309.255ZM229.692 303.455V310H228.701V304.445H228.663L227.097 305.468V304.522L228.73 303.455H229.692ZM233.639 303.365C233.931 303.367 234.219 303.42 234.502 303.525C234.785 303.629 235.041 303.8 235.269 304.036C235.499 304.273 235.682 304.592 235.819 304.995C235.957 305.396 236.028 305.894 236.03 306.491C236.03 307.064 235.972 307.574 235.857 308.022C235.742 308.467 235.577 308.843 235.362 309.15C235.149 309.457 234.89 309.69 234.585 309.85C234.28 310.01 233.937 310.089 233.556 310.089C233.166 310.089 232.82 310.013 232.517 309.859C232.215 309.706 231.969 309.494 231.779 309.223C231.589 308.951 231.471 308.637 231.424 308.284H232.399C232.463 308.565 232.593 308.793 232.789 308.968C232.987 309.14 233.243 309.227 233.556 309.227C234.035 309.227 234.409 309.018 234.678 308.6C234.946 308.18 235.082 307.594 235.084 306.842H235.033C234.922 307.026 234.783 307.183 234.617 307.315C234.453 307.447 234.269 307.55 234.064 307.622C233.86 307.695 233.641 307.731 233.409 307.731C233.032 307.731 232.689 307.638 232.38 307.453C232.071 307.267 231.825 307.013 231.642 306.689C231.458 306.365 231.367 305.995 231.367 305.58C231.367 305.167 231.46 304.792 231.648 304.455C231.838 304.118 232.102 303.852 232.441 303.656C232.782 303.458 233.181 303.361 233.639 303.365ZM233.642 304.196C233.393 304.196 233.168 304.258 232.968 304.381C232.77 304.503 232.613 304.668 232.498 304.877C232.383 305.083 232.326 305.314 232.326 305.567C232.326 305.821 232.381 306.051 232.492 306.257C232.605 306.462 232.758 306.625 232.952 306.746C233.148 306.866 233.372 306.925 233.623 306.925C233.811 306.925 233.985 306.889 234.147 306.817C234.309 306.744 234.451 306.644 234.572 306.516C234.694 306.386 234.789 306.239 234.857 306.075C234.925 305.911 234.959 305.739 234.959 305.558C234.959 305.317 234.902 305.093 234.786 304.886C234.674 304.68 234.518 304.513 234.32 304.388C234.122 304.26 233.896 304.196 233.642 304.196Z" fill="#B7CDFD" style="mix-blend-mode:screen"/>
<path d="M359.13 310V309.284L361.344 306.989C361.581 306.74 361.776 306.522 361.929 306.334C362.085 306.145 362.201 305.964 362.278 305.794C362.354 305.624 362.393 305.442 362.393 305.251C362.393 305.033 362.342 304.846 362.239 304.688C362.137 304.528 361.998 304.406 361.821 304.321C361.644 304.233 361.445 304.19 361.223 304.19C360.989 304.19 360.784 304.238 360.609 304.333C360.435 304.429 360.3 304.565 360.207 304.739C360.113 304.914 360.066 305.119 360.066 305.353H359.123C359.123 304.955 359.215 304.606 359.398 304.308C359.581 304.01 359.833 303.778 360.152 303.614C360.472 303.448 360.835 303.365 361.242 303.365C361.653 303.365 362.016 303.447 362.329 303.611C362.644 303.773 362.89 303.995 363.067 304.276C363.244 304.555 363.332 304.87 363.332 305.222C363.332 305.465 363.287 305.702 363.195 305.935C363.105 306.167 362.949 306.426 362.725 306.711C362.501 306.995 362.19 307.339 361.792 307.744L360.491 309.105V309.153H363.438V310H359.13ZM366.928 310.109C366.423 310.107 365.991 309.973 365.634 309.709C365.276 309.445 365.002 309.06 364.812 308.555C364.623 308.05 364.528 307.442 364.528 306.73C364.528 306.021 364.623 305.415 364.812 304.912C365.004 304.409 365.279 304.026 365.637 303.761C365.997 303.497 366.427 303.365 366.928 303.365C367.429 303.365 367.858 303.498 368.216 303.765C368.574 304.029 368.848 304.412 369.037 304.915C369.229 305.416 369.325 306.021 369.325 306.73C369.325 307.444 369.23 308.054 369.04 308.559C368.851 309.061 368.577 309.446 368.219 309.712C367.861 309.977 367.431 310.109 366.928 310.109ZM366.928 309.255C367.371 309.255 367.717 309.039 367.967 308.607C368.218 308.174 368.344 307.549 368.344 306.73C368.344 306.187 368.286 305.728 368.171 305.353C368.058 304.976 367.895 304.69 367.682 304.496C367.471 304.3 367.22 304.202 366.928 304.202C366.487 304.202 366.141 304.42 365.889 304.854C365.638 305.289 365.511 305.914 365.509 306.73C365.509 307.276 365.565 307.737 365.678 308.114C365.793 308.489 365.956 308.774 366.167 308.968C366.378 309.159 366.632 309.255 366.928 309.255ZM370.459 310V309.284L372.674 306.989C372.91 306.74 373.105 306.522 373.258 306.334C373.414 306.145 373.53 305.964 373.607 305.794C373.684 305.624 373.722 305.442 373.722 305.251C373.722 305.033 373.671 304.846 373.568 304.688C373.466 304.528 373.327 304.406 373.15 304.321C372.973 304.233 372.774 304.19 372.552 304.19C372.318 304.19 372.113 304.238 371.938 304.333C371.764 304.429 371.63 304.565 371.536 304.739C371.442 304.914 371.395 305.119 371.395 305.353H370.452C370.452 304.955 370.544 304.606 370.727 304.308C370.91 304.01 371.162 303.778 371.481 303.614C371.801 303.448 372.164 303.365 372.571 303.365C372.983 303.365 373.345 303.447 373.658 303.611C373.973 303.773 374.219 303.995 374.396 304.276C374.573 304.555 374.661 304.87 374.661 305.222C374.661 305.465 374.616 305.702 374.524 305.935C374.435 306.167 374.278 306.426 374.054 306.711C373.831 306.995 373.519 307.339 373.121 307.744L371.82 309.105V309.153H374.767V310H370.459ZM378.257 310.109C377.752 310.107 377.321 309.973 376.963 309.709C376.605 309.445 376.331 309.06 376.141 308.555C375.952 308.05 375.857 307.442 375.857 306.73C375.857 306.021 375.952 305.415 376.141 304.912C376.333 304.409 376.608 304.026 376.966 303.761C377.326 303.497 377.756 303.365 378.257 303.365C378.758 303.365 379.187 303.498 379.545 303.765C379.903 304.029 380.177 304.412 380.366 304.915C380.558 305.416 380.654 306.021 380.654 306.73C380.654 307.444 380.559 308.054 380.37 308.559C380.18 309.061 379.906 309.446 379.548 309.712C379.19 309.977 378.76 310.109 378.257 310.109ZM378.257 309.255C378.7 309.255 379.046 309.039 379.296 308.607C379.547 308.174 379.673 307.549 379.673 306.73C379.673 306.187 379.615 305.728 379.5 305.353C379.387 304.976 379.224 304.69 379.011 304.496C378.8 304.3 378.549 304.202 378.257 304.202C377.816 304.202 377.47 304.42 377.218 304.854C376.967 305.289 376.84 305.914 376.838 306.73C376.838 307.276 376.894 307.737 377.007 308.114C377.122 308.489 377.285 308.774 377.496 308.968C377.707 309.159 377.961 309.255 378.257 309.255Z" fill="#B7CDFD" style="mix-blend-mode:screen"/>
<path d="M503.38 310V309.284L505.594 306.989C505.831 306.74 506.026 306.522 506.179 306.334C506.335 306.145 506.451 305.964 506.528 305.794C506.604 305.624 506.643 305.442 506.643 305.251C506.643 305.033 506.592 304.846 506.489 304.688C506.387 304.528 506.248 304.406 506.071 304.321C505.894 304.233 505.695 304.19 505.473 304.19C505.239 304.19 505.034 304.238 504.859 304.333C504.685 304.429 504.55 304.565 504.457 304.739C504.363 304.914 504.316 305.119 504.316 305.353H503.373C503.373 304.955 503.465 304.606 503.648 304.308C503.831 304.01 504.083 303.778 504.402 303.614C504.722 303.448 505.085 303.365 505.492 303.365C505.903 303.365 506.266 303.447 506.579 303.611C506.894 303.773 507.14 303.995 507.317 304.276C507.494 304.555 507.582 304.87 507.582 305.222C507.582 305.465 507.537 305.702 507.445 305.935C507.355 306.167 507.199 306.426 506.975 306.711C506.751 306.995 506.44 307.339 506.042 307.744L504.741 309.105V309.153H507.688V310H503.38ZM511.178 310.109C510.673 310.107 510.241 309.973 509.884 309.709C509.526 309.445 509.252 309.06 509.062 308.555C508.873 308.05 508.778 307.442 508.778 306.73C508.778 306.021 508.873 305.415 509.062 304.912C509.254 304.409 509.529 304.026 509.887 303.761C510.247 303.497 510.677 303.365 511.178 303.365C511.679 303.365 512.108 303.498 512.466 303.765C512.824 304.029 513.098 304.412 513.287 304.915C513.479 305.416 513.575 306.021 513.575 306.73C513.575 307.444 513.48 308.054 513.29 308.559C513.101 309.061 512.827 309.446 512.469 309.712C512.111 309.977 511.681 310.109 511.178 310.109ZM511.178 309.255C511.621 309.255 511.967 309.039 512.217 308.607C512.468 308.174 512.594 307.549 512.594 306.73C512.594 306.187 512.536 305.728 512.421 305.353C512.308 304.976 512.145 304.69 511.932 304.496C511.721 304.3 511.47 304.202 511.178 304.202C510.737 304.202 510.391 304.42 510.139 304.854C509.888 305.289 509.761 305.914 509.759 306.73C509.759 307.276 509.815 307.737 509.928 308.114C510.043 308.489 510.206 308.774 510.417 308.968C510.628 309.159 510.882 309.255 511.178 309.255ZM514.709 310V309.284L516.924 306.989C517.16 306.74 517.355 306.522 517.508 306.334C517.664 306.145 517.78 305.964 517.857 305.794C517.934 305.624 517.972 305.442 517.972 305.251C517.972 305.033 517.921 304.846 517.818 304.688C517.716 304.528 517.577 304.406 517.4 304.321C517.223 304.233 517.024 304.19 516.802 304.19C516.568 304.19 516.363 304.238 516.188 304.333C516.014 304.429 515.88 304.565 515.786 304.739C515.692 304.914 515.645 305.119 515.645 305.353H514.702C514.702 304.955 514.794 304.606 514.977 304.308C515.16 304.01 515.412 303.778 515.731 303.614C516.051 303.448 516.414 303.365 516.821 303.365C517.233 303.365 517.595 303.447 517.908 303.611C518.223 303.773 518.469 303.995 518.646 304.276C518.823 304.555 518.911 304.87 518.911 305.222C518.911 305.465 518.866 305.702 518.774 305.935C518.685 306.167 518.528 306.426 518.304 306.711C518.081 306.995 517.769 307.339 517.371 307.744L516.07 309.105V309.153H519.017V310H514.709ZM522.712 303.455V310H521.721V304.445H521.682L520.116 305.468V304.522L521.75 303.455H522.712Z" fill="#B7CDFD" style="mix-blend-mode:screen"/>
<path d="M646.63 310V309.284L648.844 306.989C649.081 306.74 649.276 306.522 649.429 306.334C649.585 306.145 649.701 305.964 649.778 305.794C649.854 305.624 649.893 305.442 649.893 305.251C649.893 305.033 649.842 304.846 649.739 304.688C649.637 304.528 649.498 304.406 649.321 304.321C649.144 304.233 648.945 304.19 648.723 304.19C648.489 304.19 648.284 304.238 648.109 304.333C647.935 304.429 647.8 304.565 647.707 304.739C647.613 304.914 647.566 305.119 647.566 305.353H646.623C646.623 304.955 646.715 304.606 646.898 304.308C647.081 304.01 647.333 303.778 647.652 303.614C647.972 303.448 648.335 303.365 648.742 303.365C649.153 303.365 649.516 303.447 649.829 303.611C650.144 303.773 650.39 303.995 650.567 304.276C650.744 304.555 650.832 304.87 650.832 305.222C650.832 305.465 650.787 305.702 650.695 305.935C650.605 306.167 650.449 306.426 650.225 306.711C650.001 306.995 649.69 307.339 649.292 307.744L647.991 309.105V309.153H650.938V310H646.63ZM654.428 310.109C653.923 310.107 653.491 309.973 653.134 309.709C652.776 309.445 652.502 309.06 652.312 308.555C652.123 308.05 652.028 307.442 652.028 306.73C652.028 306.021 652.123 305.415 652.312 304.912C652.504 304.409 652.779 304.026 653.137 303.761C653.497 303.497 653.927 303.365 654.428 303.365C654.929 303.365 655.358 303.498 655.716 303.765C656.074 304.029 656.348 304.412 656.537 304.915C656.729 305.416 656.825 306.021 656.825 306.73C656.825 307.444 656.73 308.054 656.54 308.559C656.351 309.061 656.077 309.446 655.719 309.712C655.361 309.977 654.931 310.109 654.428 310.109ZM654.428 309.255C654.871 309.255 655.217 309.039 655.467 308.607C655.718 308.174 655.844 307.549 655.844 306.73C655.844 306.187 655.786 305.728 655.671 305.353C655.558 304.976 655.395 304.69 655.182 304.496C654.971 304.3 654.72 304.202 654.428 304.202C653.987 304.202 653.641 304.42 653.389 304.854C653.138 305.289 653.011 305.914 653.009 306.73C653.009 307.276 653.065 307.737 653.178 308.114C653.293 308.489 653.456 308.774 653.667 308.968C653.878 309.159 654.132 309.255 654.428 309.255ZM657.959 310V309.284L660.174 306.989C660.41 306.74 660.605 306.522 660.758 306.334C660.914 306.145 661.03 305.964 661.107 305.794C661.184 305.624 661.222 305.442 661.222 305.251C661.222 305.033 661.171 304.846 661.068 304.688C660.966 304.528 660.827 304.406 660.65 304.321C660.473 304.233 660.274 304.19 660.052 304.19C659.818 304.19 659.613 304.238 659.438 304.333C659.264 304.429 659.13 304.565 659.036 304.739C658.942 304.914 658.895 305.119 658.895 305.353H657.952C657.952 304.955 658.044 304.606 658.227 304.308C658.41 304.01 658.662 303.778 658.981 303.614C659.301 303.448 659.664 303.365 660.071 303.365C660.483 303.365 660.845 303.447 661.158 303.611C661.473 303.773 661.719 303.995 661.896 304.276C662.073 304.555 662.161 304.87 662.161 305.222C662.161 305.465 662.116 305.702 662.024 305.935C661.935 306.167 661.778 306.426 661.554 306.711C661.331 306.995 661.019 307.339 660.621 307.744L659.32 309.105V309.153H662.267V310H657.959ZM663.478 310V309.284L665.693 306.989C665.93 306.74 666.125 306.522 666.278 306.334C666.434 306.145 666.55 305.964 666.626 305.794C666.703 305.624 666.741 305.442 666.741 305.251C666.741 305.033 666.69 304.846 666.588 304.688C666.486 304.528 666.346 304.406 666.169 304.321C665.992 304.233 665.793 304.19 665.572 304.19C665.337 304.19 665.133 304.238 664.958 304.333C664.783 304.429 664.649 304.565 664.555 304.739C664.462 304.914 664.415 305.119 664.415 305.353H663.472C663.472 304.955 663.563 304.606 663.747 304.308C663.93 304.01 664.181 303.778 664.501 303.614C664.821 303.448 665.184 303.365 665.591 303.365C666.002 303.365 666.364 303.447 666.677 303.611C666.993 303.773 667.239 303.995 667.416 304.276C667.593 304.555 667.681 304.87 667.681 305.222C667.681 305.465 667.635 305.702 667.544 305.935C667.454 306.167 667.297 306.426 667.074 306.711C666.85 306.995 666.539 307.339 666.141 307.744L664.84 309.105V309.153H667.786V310H663.478Z" fill="#B7CDFD" style="mix-blend-mode:screen"/>
<defs>
<filter id="filter0_d_50_2964" x="80.3457" y="68.1406" width="582.994" height="143.51" filterUnits="userSpaceOnUse" color-interpolation-filters="sRGB">
<feFlood flood-opacity="0" result="BackgroundImageFix"/>
<feColorMatrix in="SourceAlpha" type="matrix" values="0 0 0 0 0 0 0 0 0 0 0 0 0 0 0 0 0 0 127 0" result="hardAlpha"/>
<feOffset/>
<feGaussianBlur stdDeviation="2"/>
<feComposite in2="hardAlpha" operator="out"/>
<feColorMatrix type="matrix" values="0 0 0 0 1 0 0 0 0 0 0 0 0 0 0.839216 0 0 0 1 0"/>
<feBlend mode="screen" in2="BackgroundImageFix" result="effect1_dropShadow_50_2964"/>
<feBlend mode="normal" in="SourceGraphic" in2="effect1_dropShadow_50_2964" result="shape"/>
</filter>
<filter id="filter1_d_50_2964" x="80.0498" y="28.5" width="581.95" height="140.725" filterUnits="userSpaceOnUse" color-interpolation-filters="sRGB">
<feFlood flood-opacity="0" result="BackgroundImageFix"/>
<feColorMatrix in="SourceAlpha" type="matrix" values="0 0 0 0 0 0 0 0 0 0 0 0 0 0 0 0 0 0 127 0" result="hardAlpha"/>
<feOffset/>
<feGaussianBlur stdDeviation="2"/>
<feComposite in2="hardAlpha" operator="out"/>
<feColorMatrix type="matrix" values="0 0 0 0 0.117647 0 0 0 0 0.823529 0 0 0 0 0.901961 0 0 0 1 0"/>
<feBlend mode="screen" in2="BackgroundImageFix" result="effect1_dropShadow_50_2964"/>
<feBlend mode="normal" in="SourceGraphic" in2="effect1_dropShadow_50_2964" result="shape"/>
</filter>
<linearGradient id="paint0_linear_50_2964" x1="371.843" y1="115.564" x2="371.843" y2="255.936" gradientUnits="userSpaceOnUse">
<stop offset="0.203583" stop-color="white"/>
<stop offset="1" stop-color="white" stop-opacity="0"/>
</linearGradient>
<radialGradient id="paint1_radial_50_2964" cx="0" cy="0" r="1" gradientUnits="userSpaceOnUse" gradientTransform="translate(370.061 189.181) scale(284.719 1094.06)">
<stop stop-color="#FF00D6"/>
<stop offset="0.489583" stop-color="#C21BDD"/>
</radialGradient>
<linearGradient id="paint2_linear_50_2964" x1="371.023" y1="116.687" x2="371.023" y2="202.532" gradientUnits="userSpaceOnUse">
<stop offset="0.203583" stop-color="white"/>
<stop offset="1" stop-color="white" stop-opacity="0"/>
</linearGradient>
<radialGradient id="paint3_radial_50_2964" cx="0" cy="0" r="1" gradientUnits="userSpaceOnUse" gradientTransform="translate(372.802 190.09) rotate(180) scale(284.2 1090.88)">
<stop stop-color="#1ED2E6"/>
<stop offset="0.489583" stop-color="#1DF0CA"/>
</radialGradient>
</defs>
</svg>
