<svg width="408" height="415" viewBox="0 0 408 415" fill="none" xmlns="http://www.w3.org/2000/svg">
<path d="M124.071 289.552C145.136 319.131 171.846 338.078 204.201 346.394C236.555 338.078 263.265 319.131 284.331 289.552C305.396 259.973 315.929 227.127 315.929 191.015V111.765L204.201 69L92.4727 111.765V191.015C92.4727 227.127 103.005 259.973 124.071 289.552Z" fill="#071838"/>
<path d="M204.007 252.536C218.106 252.536 230.09 247.517 239.959 237.48C249.828 227.442 254.762 215.254 254.762 200.915C254.762 186.575 249.828 174.387 239.959 164.349C230.09 154.312 218.106 149.293 204.007 149.293V166.5C213.406 166.5 221.395 169.846 227.975 176.538C234.554 183.229 237.844 191.355 237.844 200.915C237.844 210.474 234.554 218.6 227.975 225.291C221.395 231.983 213.406 235.329 204.007 235.329C197.804 235.329 192.023 233.704 186.666 230.454C181.308 227.203 177.126 222.806 174.118 217.261L159.455 225.578C163.967 233.991 170.17 240.587 178.065 245.366C185.961 250.146 194.608 252.536 204.007 252.536ZM161.711 210.665C164.155 210.665 166.176 209.853 167.773 208.228C169.371 206.602 170.17 204.547 170.17 202.062C170.17 199.576 169.371 197.521 167.773 195.896C166.176 194.271 164.155 193.458 161.711 193.458C159.267 193.458 157.246 194.271 155.649 195.896C154.051 197.521 153.252 199.576 153.252 202.062C153.252 204.547 154.051 206.602 155.649 208.228C157.246 209.853 159.267 210.665 161.711 210.665ZM167.914 186.575C170.358 186.575 172.379 185.763 173.977 184.137C175.575 182.512 176.374 180.457 176.374 177.972C176.374 175.486 175.575 173.431 173.977 171.806C172.379 170.181 170.358 169.368 167.914 169.368C165.471 169.368 163.45 170.181 161.852 171.806C160.254 173.431 159.455 175.486 159.455 177.972C159.455 180.457 160.254 182.512 161.852 184.137C163.45 185.763 165.471 186.575 167.914 186.575ZM184.269 170.802C186.713 170.802 188.733 169.989 190.331 168.364C191.929 166.739 192.728 164.684 192.728 162.198C192.728 159.713 191.929 157.658 190.331 156.032C188.733 154.407 186.713 153.595 184.269 153.595C181.825 153.595 179.804 154.407 178.206 156.032C176.609 157.658 175.81 159.713 175.81 162.198C175.81 164.684 176.609 166.739 178.206 168.364C179.804 169.989 181.825 170.802 184.269 170.802ZM204.007 321.365C177.877 314.673 156.306 299.426 139.294 275.622C122.282 251.819 113.775 225.387 113.775 196.326V126.35L204.007 91.9355L294.239 126.35V196.326C294.239 225.387 285.732 251.819 268.72 275.622C251.708 299.426 230.137 314.673 204.007 321.365Z" fill="url(#paint0_linear_48_4261)"/>
<mask id="mask0_48_4261" style="mask-type:alpha" maskUnits="userSpaceOnUse" x="0" y="0" width="408" height="415">
<rect width="408" height="415" fill="#D9D9D9"/>
</mask>
<g mask="url(#mask0_48_4261)">
</g>
<defs>
<linearGradient id="paint0_linear_48_4261" x1="204.007" y1="91.9355" x2="204.007" y2="321.365" gradientUnits="userSpaceOnUse">
<stop stop-color="#3676E3" stop-opacity="0.8"/>
<stop offset="1" stop-color="#1ED2E6" stop-opacity="0.8"/>
</linearGradient>
</defs>
</svg>
